<?xml version="1.0" standalone="no"?>
<!DOCTYPE svg PUBLIC "-//W3C//DTD SVG 1.1//EN" "http://www.w3.org/Graphics/SVG/1.1/DTD/svg11.dtd" >
<svg>
<metadata>
Created by FontForge 20120731 at Tue Jan 17 20:56:21 2023
 By ffonts
Copyright \(c\) 2020 by FontPeople . All rights reserved.
</metadata>
<defs>
<font id="BillieDEMO-Bold" horiz-adv-x="0" >
  <font-face 
    font-family="Billie DEMO"
    font-weight="700"
    font-stretch="normal"
    units-per-em="1000"
    panose-1="0 0 8 0 0 0 0 0 0 0"
    ascent="800"
    descent="-200"
    x-height="511"
    cap-height="690"
    bbox="-681 -263 1331 985"
    underline-thickness="50"
    underline-position="-50"
    stemh="144"
    stemv="170"
    unicode-range="U+000D-FB02"
  />
<missing-glyph horiz-adv-x="552" 
d="M285 238c-105 23 -161 77 -161 143c0 102 108 149 108 230c0 70 -99 82 -157 86c30 38 112 88 233 88c69 0 169 -28 169 -141c0 -128 -117 -233 -192 -406zM312 419c47 75 103 148 103 213c0 92 -83 110 -176 92c64 -17 107 -36 107 -78c0 -19 -14 -50 -59 -53
c-36 -77 -20 -140 25 -174zM241 -5c-59 0 -103 42 -103 101c0 60 44 100 103 100c60 0 104 -40 104 -100c0 -59 -44 -101 -104 -101z" />
    <glyph glyph-name="fi" unicode="fi" horiz-adv-x="760" 
d="M612 574c-58 0 -100 38 -100 95c0 54 39 95 100 95c56 0 98 -39 98 -95c0 -54 -40 -95 -98 -95zM107 511v44c0 122 79 196 221 196c41 0 100 -7 130 -21l-17 -127c-30 12 -62 18 -95 18c-52 0 -69 -27 -69 -73v-37h157v-132h-157v-379h-170v379h-92v114zM696 0h-170v511
h170v-511z" />
    <glyph glyph-name="fl" unicode="fl" horiz-adv-x="760" 
d="M107 511v44c0 122 79 196 221 196c41 0 100 -7 130 -21l-17 -127c-30 12 -62 18 -95 18c-52 0 -69 -27 -69 -73v-37h157v-132h-157v-379h-170v379h-92v114zM526 0v735l170 15v-750h-170z" />
    <glyph glyph-name=".notdef" horiz-adv-x="552" 
d="M285 238c-105 23 -161 77 -161 143c0 102 108 149 108 230c0 70 -99 82 -157 86c30 38 112 88 233 88c69 0 169 -28 169 -141c0 -128 -117 -233 -192 -406zM312 419c47 75 103 148 103 213c0 92 -83 110 -176 92c64 -17 107 -36 107 -78c0 -19 -14 -50 -59 -53
c-36 -77 -20 -140 25 -174zM241 -5c-59 0 -103 42 -103 101c0 60 44 100 103 100c60 0 104 -40 104 -100c0 -59 -44 -101 -104 -101z" />
    <glyph glyph-name="NULL" 
 />
    <glyph glyph-name="NULL" 
 />
    <glyph glyph-name="CR" unicode="&#xd;" 
 />
    <glyph glyph-name="space" unicode=" " horiz-adv-x="224" 
 />
    <glyph glyph-name="A" unicode="A" horiz-adv-x="707" 
d="M698 0h-181l-48 151h-237l-47 -151h-176l242 690h205zM273 285h155l-77 273z" />
    <glyph glyph-name="Aacute" unicode="&#xc1;" horiz-adv-x="707" 
d="M349 915h177l-135 -169h-112zM698 0h-181l-48 151h-237l-47 -151h-176l242 690h205zM273 285h155l-77 273z" />
    <glyph glyph-name="Abreve" unicode="&#x102;" horiz-adv-x="707" 
d="M353 738c-125 0 -187 76 -187 176h114c1 -39 22 -70 75 -70c54 0 71 30 73 70h113c0 -100 -60 -176 -188 -176zM698 0h-181l-48 151h-237l-47 -151h-176l242 690h205zM273 285h155l-77 273z" />
    <glyph glyph-name="Acircumflex" unicode="&#xc2;" horiz-adv-x="707" 
d="M430 746l-76 80l-77 -80h-113l105 169h169l104 -169h-112zM698 0h-181l-48 151h-237l-47 -151h-176l242 690h205zM273 285h155l-77 273z" />
    <glyph glyph-name="Adieresis" unicode="&#xc4;" horiz-adv-x="707" 
d="M228 747c-54 0 -92 34 -92 85c0 47 35 84 92 84c51 0 89 -34 89 -84c0 -48 -36 -85 -89 -85zM481 747c-53 0 -91 34 -91 85c0 47 35 84 91 84c53 0 90 -34 90 -84c0 -48 -35 -85 -90 -85zM698 0h-181l-48 151h-237l-47 -151h-176l242 690h205zM273 285h155l-77 273z" />
    <glyph glyph-name="Agrave" unicode="&#xc0;" horiz-adv-x="707" 
d="M358 915l71 -169h-113l-134 169h176zM698 0h-181l-48 151h-237l-47 -151h-176l242 690h205zM273 285h155l-77 273z" />
    <glyph glyph-name="Amacron" unicode="&#x100;" horiz-adv-x="707" 
d="M179 891h350v-116h-350v116zM698 0h-181l-48 151h-237l-47 -151h-176l242 690h205zM273 285h155l-77 273z" />
    <glyph glyph-name="Aogonek" unicode="&#x104;" horiz-adv-x="707" 
d="M682 -116l17 -78c-19 -17 -52 -32 -105 -32c-60 0 -113 29 -113 85c0 53 38 98 106 141h-70l-48 151h-237l-47 -151h-176l242 690h205l242 -690c-65 -41 -95 -74 -95 -109c0 -21 13 -30 30 -30c14 0 32 6 49 23zM273 285h155l-77 273z" />
    <glyph glyph-name="Aring" unicode="&#xc5;" horiz-adv-x="707" 
d="M353 718c-82 0 -141 49 -141 121c0 78 60 127 145 127c81 0 140 -50 140 -124c0 -76 -60 -124 -144 -124zM353 895c-32 0 -55 -21 -55 -53c0 -33 23 -53 59 -53c31 0 54 20 54 50c0 35 -23 56 -58 56zM698 0h-181l-48 151h-237l-47 -151h-176l242 690h205zM273 285h155
l-77 273z" />
    <glyph glyph-name="Atilde" unicode="&#xc3;" horiz-adv-x="707" 
d="M243 756l-81 6c-5 101 52 148 114 148c80 0 113 -47 152 -47c27 0 37 25 39 45l79 -6c4 -100 -53 -152 -111 -152c-83 0 -115 48 -156 48c-22 0 -35 -21 -36 -42zM698 0h-181l-48 151h-237l-47 -151h-176l242 690h205zM273 285h155l-77 273z" />
    <glyph glyph-name="AE" unicode="&#xc6;" horiz-adv-x="1029" 
d="M649 281v-140h328v-141h-498v151h-213l-76 -151h-188l365 690h604v-141h-322v-129h296v-139h-296zM455 554l-125 -269h149v269h-24z" />
    <glyph glyph-name="B" unicode="B" horiz-adv-x="661" 
d="M473 362c91 -17 150 -63 150 -163c0 -141 -101 -199 -289 -199h-259v690h287c153 0 237 -52 237 -164c0 -89 -40 -141 -126 -164zM326 558h-81v-148h85c62 0 98 15 98 73c0 50 -34 75 -102 75zM245 132h98c52 0 104 18 104 79c0 68 -54 85 -117 85h-85v-164z" />
    <glyph glyph-name="C" unicode="C" horiz-adv-x="638" 
d="M391 -15c-222 0 -351 144 -351 357c0 215 126 361 352 361c76 0 152 -14 211 -47l-37 -157c-36 29 -90 55 -161 55c-115 0 -187 -75 -187 -204c0 -131 77 -215 193 -215c65 0 118 23 154 55l37 -157c-67 -39 -138 -48 -211 -48z" />
    <glyph glyph-name="Cacute" unicode="&#x106;" horiz-adv-x="638" 
d="M414 746h-112l70 169h177zM391 -15c-222 0 -351 144 -351 357c0 215 126 361 352 361c76 0 152 -14 211 -47l-37 -157c-36 29 -90 55 -161 55c-115 0 -187 -75 -187 -204c0 -131 77 -215 193 -215c65 0 118 23 154 55l37 -157c-67 -39 -138 -48 -211 -48z" />
    <glyph glyph-name="Ccaron" unicode="&#x10c;" horiz-adv-x="638" 
d="M462 746h-170l-105 169h113l77 -80l76 80h113zM391 -15c-222 0 -351 144 -351 357c0 215 126 361 352 361c76 0 152 -14 211 -47l-37 -157c-36 29 -90 55 -161 55c-115 0 -187 -75 -187 -204c0 -131 77 -215 193 -215c65 0 118 23 154 55l37 -157
c-67 -39 -138 -48 -211 -48z" />
    <glyph glyph-name="Ccedilla" unicode="&#xc7;" horiz-adv-x="638" 
d="M565 190l37 -157c-61 -35 -125 -46 -191 -48l-16 -24c59 -14 95 -41 95 -90c0 -64 -56 -97 -130 -97c-47 0 -90 8 -118 23l15 88c32 -17 67 -27 92 -27c16 0 33 8 33 25s-8 36 -69 47l-8 19l25 40c-184 24 -290 160 -290 353c0 215 126 361 352 361c76 0 152 -14 211 -47
l-37 -157c-36 29 -90 55 -161 55c-115 0 -187 -75 -187 -204c0 -131 77 -215 193 -215c65 0 118 23 154 55z" />
    <glyph glyph-name="D" unicode="D" horiz-adv-x="706" 
d="M320 0h-245v690h251c229 0 340 -124 340 -343c0 -204 -101 -347 -346 -347zM250 548v-406h73c105 0 165 55 165 199c0 123 -46 207 -158 207h-80z" />
    <glyph glyph-name="Eth" unicode="&#xd0;" horiz-adv-x="727" 
d="M96 690h252c228 0 339 -124 339 -343c0 -204 -101 -347 -345 -347h-246v292h-86v105h86v293zM272 142h73c104 0 164 55 164 199c0 123 -45 207 -158 207h-79v-151h147v-105h-147v-150z" />
    <glyph glyph-name="Dcaron" unicode="&#x10e;" horiz-adv-x="706" 
d="M422 746h-170l-105 169h113l77 -80l76 80h113zM320 0h-245v690h251c229 0 340 -124 340 -343c0 -204 -101 -347 -346 -347zM250 548v-406h73c105 0 165 55 165 199c0 123 -46 207 -158 207h-80z" />
    <glyph glyph-name="Dcroat" unicode="&#x110;" horiz-adv-x="727" 
d="M96 690h252c228 0 339 -124 339 -343c0 -204 -101 -347 -345 -347h-246v292h-86v105h86v293zM272 142h73c104 0 164 55 164 199c0 123 -45 207 -158 207h-79v-151h147v-105h-147v-150z" />
    <glyph glyph-name="E" unicode="E" horiz-adv-x="625" 
d="M573 0h-498v690h492v-141h-322v-129h296v-139h-296v-140h328v-141z" />
    <glyph glyph-name="Eacute" unicode="&#xc9;" horiz-adv-x="625" 
d="M367 746h-112l70 169h177zM573 0h-498v690h492v-141h-322v-129h296v-139h-296v-140h328v-141z" />
    <glyph glyph-name="Ecaron" unicode="&#x11a;" horiz-adv-x="625" 
d="M415 746h-170l-105 169h113l77 -80l76 80h113zM573 0h-498v690h492v-141h-322v-129h296v-139h-296v-140h328v-141z" />
    <glyph glyph-name="Ecircumflex" unicode="&#xca;" horiz-adv-x="625" 
d="M253 746h-113l105 169h169l104 -169h-112l-76 80zM573 0h-498v690h492v-141h-322v-129h296v-139h-296v-140h328v-141z" />
    <glyph glyph-name="Edieresis" unicode="&#xcb;" horiz-adv-x="625" 
d="M204 747c-54 0 -92 34 -92 85c0 47 35 84 92 84c51 0 89 -34 89 -84c0 -48 -36 -85 -89 -85zM457 747c-53 0 -91 34 -91 85c0 47 35 84 91 84c53 0 90 -34 90 -84c0 -48 -35 -85 -90 -85zM573 0h-498v690h492v-141h-322v-129h296v-139h-296v-140h328v-141z" />
    <glyph glyph-name="Edotaccent" unicode="&#x116;" horiz-adv-x="625" 
d="M331 747c-58 0 -100 36 -100 91c0 52 39 91 100 91c56 0 98 -37 98 -91c0 -52 -39 -91 -98 -91zM573 0h-498v690h492v-141h-322v-129h296v-139h-296v-140h328v-141z" />
    <glyph glyph-name="Egrave" unicode="&#xc8;" horiz-adv-x="625" 
d="M405 746h-113l-134 169h176zM573 0h-498v690h492v-141h-322v-129h296v-139h-296v-140h328v-141z" />
    <glyph glyph-name="Emacron" unicode="&#x112;" horiz-adv-x="625" 
d="M504 775h-350v116h350v-116zM573 0h-498v690h492v-141h-322v-129h296v-139h-296v-140h328v-141z" />
    <glyph glyph-name="Eogonek" unicode="&#x118;" horiz-adv-x="625" 
d="M557 -116l17 -78c-19 -17 -52 -32 -105 -32c-60 0 -113 29 -113 85c0 53 38 98 106 141h-387v690h492v-141h-322v-129h296v-139h-296v-140h328v-141c-65 -41 -95 -74 -95 -109c0 -21 13 -30 30 -30c14 0 32 6 49 23z" />
    <glyph glyph-name="F" unicode="F" horiz-adv-x="583" 
d="M248 0h-173v690h471v-145h-298v-151h275v-146h-275v-248z" />
    <glyph glyph-name="G" unicode="G" horiz-adv-x="713" 
d="M371 256v136h282v-356c-74 -38 -167 -50 -244 -50c-231 0 -369 130 -369 355c0 216 135 362 369 362c77 0 169 -15 238 -47l-39 -158c-41 31 -115 56 -186 56c-124 0 -204 -71 -204 -204c0 -137 71 -222 203 -222c28 0 56 3 81 9v119h-131z" />
    <glyph glyph-name="Gbreve" unicode="&#x11e;" horiz-adv-x="713" 
d="M406 738c-125 0 -187 76 -187 176h114c1 -39 22 -70 75 -70c54 0 71 30 73 70h113c0 -100 -60 -176 -188 -176zM371 256v136h282v-356c-74 -38 -167 -50 -244 -50c-231 0 -369 130 -369 355c0 216 135 362 369 362c77 0 169 -15 238 -47l-39 -158c-41 31 -115 56 -186 56
c-124 0 -204 -71 -204 -204c0 -137 71 -222 203 -222c28 0 56 3 81 9v119h-131z" />
    <glyph glyph-name="uni0122" unicode="&#x122;" horiz-adv-x="713" 
d="M371 256v136h282v-356c-74 -38 -167 -50 -244 -50c-231 0 -369 130 -369 355c0 216 135 362 369 362c77 0 169 -15 238 -47l-39 -158c-41 31 -115 56 -186 56c-124 0 -204 -71 -204 -204c0 -137 71 -222 203 -222c28 0 56 3 81 9v119h-131zM411 -38c49 0 91 -27 91 -81
c0 -68 -60 -123 -141 -144l-34 35c42 18 61 40 61 64c0 27 -24 41 -72 41c0 46 35 85 95 85z" />
    <glyph glyph-name="H" unicode="H" horiz-adv-x="739" 
d="M489 421v269h175v-690h-175v269h-239v-269h-175v690h175v-269h239z" />
    <glyph glyph-name="I" unicode="I" horiz-adv-x="325" 
d="M250 0h-175v690h175v-690z" />
    <glyph glyph-name="Iacute" unicode="&#xcd;" horiz-adv-x="325" 
d="M200 746h-112l70 169h177zM250 0h-175v690h175v-690z" />
    <glyph glyph-name="Icircumflex" unicode="&#xce;" horiz-adv-x="325" 
d="M86 746h-113l105 169h169l104 -169h-112l-76 80zM250 0h-175v690h175v-690z" />
    <glyph glyph-name="Idieresis" unicode="&#xcf;" horiz-adv-x="325" 
d="M45 747c-53 0 -91 34 -91 85c0 47 34 84 91 84c52 0 90 -34 90 -84c0 -48 -36 -85 -90 -85zM281 747c-53 0 -91 34 -91 85c0 47 35 84 91 84c53 0 90 -34 90 -84c0 -48 -35 -85 -90 -85zM250 0h-175v690h175v-690z" />
    <glyph glyph-name="Idotaccent" unicode="&#x130;" horiz-adv-x="325" 
d="M164 747c-58 0 -100 36 -100 91c0 52 39 91 100 91c56 0 98 -37 98 -91c0 -52 -39 -91 -98 -91zM250 0h-175v690h175v-690z" />
    <glyph glyph-name="Igrave" unicode="&#xcc;" horiz-adv-x="325" 
d="M238 746h-113l-134 169h176zM250 0h-175v690h175v-690z" />
    <glyph glyph-name="Imacron" unicode="&#x12a;" horiz-adv-x="325" 
d="M338 775h-350v116h350v-116zM250 0h-175v690h175v-690z" />
    <glyph glyph-name="Iogonek" unicode="&#x12e;" horiz-adv-x="325" 
d="M234 -116l17 -78c-19 -17 -52 -32 -105 -32c-60 0 -113 29 -113 85c0 53 38 98 106 141h-64v690h175v-690c-65 -41 -95 -74 -95 -109c0 -21 13 -30 30 -30c14 0 32 6 49 23z" />
    <glyph glyph-name="J" unicode="J" horiz-adv-x="536" 
d="M216 -14c-65 0 -141 14 -202 44l21 150c45 -24 103 -43 156 -43c67 0 107 31 107 144v409h175v-377c0 -250 -91 -327 -257 -327z" />
    <glyph glyph-name="uni004A0301" horiz-adv-x="536" 
d="M421 746h-112l70 169h177zM216 -14c-65 0 -141 14 -202 44l21 150c45 -24 103 -43 156 -43c67 0 107 31 107 144v409h175v-377c0 -250 -91 -327 -257 -327z" />
    <glyph glyph-name="K" unicode="K" horiz-adv-x="693" 
d="M682 0h-196l-173 291l-63 -72v-219h-175v690h175v-315l219 315h197l-226 -295z" />
    <glyph glyph-name="uni0136" unicode="&#x136;" horiz-adv-x="693" 
d="M666 690l-226 -295l242 -395h-196l-173 291l-63 -72v-219h-175v690h175v-315l219 315h197zM355 -38c49 0 91 -27 91 -81c0 -68 -60 -123 -141 -144l-34 35c42 18 61 40 61 64c0 27 -24 41 -72 41c0 46 35 85 95 85z" />
    <glyph glyph-name="L" unicode="L" horiz-adv-x="596" 
d="M561 0h-486v690h175v-540h311v-150z" />
    <glyph glyph-name="Lacute" unicode="&#x139;" horiz-adv-x="596" 
d="M200 746h-112l70 169h177zM561 0h-486v690h175v-540h311v-150z" />
    <glyph glyph-name="Lcaron" unicode="&#x13d;" horiz-adv-x="596" 
d="M454 496h-112l6 220l154 12zM561 0h-486v690h175v-540h311v-150z" />
    <glyph glyph-name="uni013B" unicode="&#x13b;" horiz-adv-x="596" 
d="M561 0h-486v690h175v-540h311v-150zM268 -263l-34 35c42 18 61 40 61 64c0 27 -24 41 -72 41c0 46 35 85 95 85c49 0 91 -27 91 -81c0 -68 -60 -123 -141 -144z" />
    <glyph glyph-name="Ldot" unicode="&#x13f;" horiz-adv-x="596" 
d="M561 0h-486v690h175v-540h311v-150zM458 255c-58 0 -99 38 -99 95c0 54 38 95 99 95c56 0 98 -38 98 -95c0 -54 -39 -95 -98 -95z" />
    <glyph glyph-name="Lslash" unicode="&#x141;" horiz-adv-x="618" 
d="M272 310v-160h311v-150h-486v243l-83 -35v128l83 35v319h175v-251l166 72v-129z" />
    <glyph glyph-name="M" unicode="M" horiz-adv-x="960" 
d="M856 690l48 -690h-172l-27 444l-161 -445h-133l-159 452l-28 -451h-167l47 690h206l171 -481l176 481h199z" />
    <glyph glyph-name="N" unicode="N" horiz-adv-x="750" 
d="M511 276v414h164v-690h-159l-277 413v-413h-164v690h158z" />
    <glyph glyph-name="Nacute" unicode="&#x143;" horiz-adv-x="750" 
d="M372 915h177l-135 -169h-112zM511 276v414h164v-690h-159l-277 413v-413h-164v690h158z" />
    <glyph glyph-name="Ncaron" unicode="&#x147;" horiz-adv-x="750" 
d="M567 915l-104 -169h-170l-105 169h113l77 -80l76 80h113zM511 276v414h164v-690h-159l-277 413v-413h-164v690h158z" />
    <glyph glyph-name="uni0145" unicode="&#x145;" horiz-adv-x="750" 
d="M511 276v414h164v-690h-159l-277 413v-413h-164v690h158zM380 -38c49 0 91 -27 91 -81c0 -68 -60 -123 -141 -144l-34 35c42 18 61 40 61 64c0 27 -24 41 -72 41c0 46 35 85 95 85z" />
    <glyph glyph-name="Ntilde" unicode="&#xd1;" horiz-adv-x="750" 
d="M266 756l-81 6c-5 101 52 148 114 148c80 0 113 -47 152 -47c27 0 37 25 39 45l79 -6c4 -100 -53 -152 -111 -152c-83 0 -115 48 -156 48c-22 0 -35 -21 -36 -42zM511 276v414h164v-690h-159l-277 413v-413h-164v690h158z" />
    <glyph glyph-name="O" unicode="O" horiz-adv-x="753" 
d="M375 -14c-212 0 -335 135 -335 355c0 206 113 362 337 362c213 0 336 -136 336 -355c0 -207 -114 -362 -338 -362zM377 133c109 0 159 79 159 208c0 122 -47 216 -161 216c-107 0 -157 -79 -157 -209c0 -123 46 -215 159 -215z" />
    <glyph glyph-name="Oacute" unicode="&#xd3;" horiz-adv-x="753" 
d="M414 746h-112l70 169h177zM375 -14c-212 0 -335 135 -335 355c0 206 113 362 337 362c213 0 336 -136 336 -355c0 -207 -114 -362 -338 -362zM377 133c109 0 159 79 159 208c0 122 -47 216 -161 216c-107 0 -157 -79 -157 -209c0 -123 46 -215 159 -215z" />
    <glyph glyph-name="Ocircumflex" unicode="&#xd4;" horiz-adv-x="753" 
d="M300 746h-113l105 169h169l104 -169h-112l-76 80zM375 -14c-212 0 -335 135 -335 355c0 206 113 362 337 362c213 0 336 -136 336 -355c0 -207 -114 -362 -338 -362zM377 133c109 0 159 79 159 208c0 122 -47 216 -161 216c-107 0 -157 -79 -157 -209
c0 -123 46 -215 159 -215z" />
    <glyph glyph-name="Odieresis" unicode="&#xd6;" horiz-adv-x="753" 
d="M251 747c-54 0 -92 34 -92 85c0 47 35 84 92 84c51 0 89 -34 89 -84c0 -48 -36 -85 -89 -85zM504 747c-53 0 -91 34 -91 85c0 47 35 84 91 84c53 0 90 -34 90 -84c0 -48 -35 -85 -90 -85zM375 -14c-212 0 -335 135 -335 355c0 206 113 362 337 362
c213 0 336 -136 336 -355c0 -207 -114 -362 -338 -362zM377 133c109 0 159 79 159 208c0 122 -47 216 -161 216c-107 0 -157 -79 -157 -209c0 -123 46 -215 159 -215z" />
    <glyph glyph-name="Ograve" unicode="&#xd2;" horiz-adv-x="753" 
d="M452 746h-113l-134 169h176zM375 -14c-212 0 -335 135 -335 355c0 206 113 362 337 362c213 0 336 -136 336 -355c0 -207 -114 -362 -338 -362zM377 133c109 0 159 79 159 208c0 122 -47 216 -161 216c-107 0 -157 -79 -157 -209c0 -123 46 -215 159 -215z" />
    <glyph glyph-name="Ohungarumlaut" unicode="&#x150;" horiz-adv-x="753" 
d="M313 746h-108l65 169h175zM538 746h-107l75 169h173zM375 -14c-212 0 -335 135 -335 355c0 206 113 362 337 362c213 0 336 -136 336 -355c0 -207 -114 -362 -338 -362zM377 133c109 0 159 79 159 208c0 122 -47 216 -161 216c-107 0 -157 -79 -157 -209
c0 -123 46 -215 159 -215z" />
    <glyph glyph-name="Omacron" unicode="&#x14c;" horiz-adv-x="753" 
d="M552 775h-350v116h350v-116zM375 -14c-212 0 -335 135 -335 355c0 206 113 362 337 362c213 0 336 -136 336 -355c0 -207 -114 -362 -338 -362zM377 133c109 0 159 79 159 208c0 122 -47 216 -161 216c-107 0 -157 -79 -157 -209c0 -123 46 -215 159 -215z" />
    <glyph glyph-name="Oslash" unicode="&#xd8;" horiz-adv-x="753" 
d="M699 688l-64 -91c51 -61 78 -146 78 -249c0 -207 -114 -362 -338 -362c-58 0 -110 10 -154 30l-67 -96l-99 65l69 100c-55 62 -84 149 -84 256c0 206 113 362 337 362c62 0 117 -12 163 -33l57 81zM375 557c-107 0 -157 -79 -157 -209c0 -46 7 -88 21 -123l214 313
c-22 12 -47 19 -78 19zM377 133c109 0 159 79 159 208c0 45 -6 86 -20 120l-212 -312c21 -10 45 -16 73 -16z" />
    <glyph glyph-name="Otilde" unicode="&#xd5;" horiz-adv-x="753" 
d="M458 750c-83 0 -115 48 -156 48c-22 0 -35 -21 -36 -42l-81 6c-5 101 52 148 114 148c80 0 113 -47 152 -47c27 0 37 25 39 45l79 -6c4 -100 -53 -152 -111 -152zM375 -14c-212 0 -335 135 -335 355c0 206 113 362 337 362c213 0 336 -136 336 -355
c0 -207 -114 -362 -338 -362zM377 133c109 0 159 79 159 208c0 122 -47 216 -161 216c-107 0 -157 -79 -157 -209c0 -123 46 -215 159 -215z" />
    <glyph glyph-name="OE" unicode="&#x152;" horiz-adv-x="1085" 
d="M705 281v-140h329v-141h-499v69c-44 -52 -106 -83 -190 -83c-180 0 -305 135 -305 355c0 206 115 362 300 362c85 0 149 -29 195 -81v68h493v-141h-323v-129h297v-139h-297zM377 132c108 0 158 80 158 209c0 122 -46 216 -159 216c-108 0 -158 -79 -158 -209
c0 -122 46 -216 159 -216z" />
    <glyph glyph-name="P" unicode="P" horiz-adv-x="645" 
d="M344 690c185 0 272 -78 272 -226c0 -156 -99 -242 -299 -242h-67v-222h-175v690h269zM250 355h67c83 0 122 36 122 101s-34 100 -122 100h-67v-201z" />
    <glyph glyph-name="Thorn" unicode="&#xde;" horiz-adv-x="645" 
d="M250 580h94c185 0 272 -76 272 -226c0 -156 -99 -241 -299 -241h-67v-113h-175v690h175v-110zM250 246h67c83 0 122 36 122 101s-34 100 -122 100h-67v-201z" />
    <glyph glyph-name="Q" unicode="Q" horiz-adv-x="753" 
d="M531 17l210 -111l-105 -130l-259 210h-2c-212 0 -335 135 -335 355c0 206 113 362 337 362c213 0 336 -136 336 -355c0 -151 -61 -275 -182 -331zM218 348c0 -123 46 -215 159 -215c109 0 159 79 159 208c0 122 -47 216 -161 216c-107 0 -157 -79 -157 -209z" />
    <glyph glyph-name="R" unicode="R" horiz-adv-x="673" 
d="M527 230l129 -230h-188l-106 201c-17 32 -36 51 -69 51h-43v-252h-175v690h266c179 0 267 -66 267 -196c0 -103 -47 -169 -139 -198c25 -15 42 -37 58 -66zM314 556h-64v-190h64c80 0 116 37 116 98c0 59 -32 92 -116 92z" />
    <glyph glyph-name="Racute" unicode="&#x154;" horiz-adv-x="673" 
d="M316 915h177l-135 -169h-112zM527 230l129 -230h-188l-106 201c-17 32 -36 51 -69 51h-43v-252h-175v690h266c179 0 267 -66 267 -196c0 -103 -47 -169 -139 -198c25 -15 42 -37 58 -66zM314 556h-64v-190h64c80 0 116 37 116 98c0 59 -32 92 -116 92z" />
    <glyph glyph-name="Rcaron" unicode="&#x158;" horiz-adv-x="673" 
d="M511 915l-104 -169h-170l-105 169h113l77 -80l76 80h113zM527 230l129 -230h-188l-106 201c-17 32 -36 51 -69 51h-43v-252h-175v690h266c179 0 267 -66 267 -196c0 -103 -47 -169 -139 -198c25 -15 42 -37 58 -66zM314 556h-64v-190h64c80 0 116 37 116 98
c0 59 -32 92 -116 92z" />
    <glyph glyph-name="uni0156" unicode="&#x156;" horiz-adv-x="673" 
d="M527 230l129 -230h-188l-106 201c-17 32 -36 51 -69 51h-43v-252h-175v690h266c179 0 267 -66 267 -196c0 -103 -47 -169 -139 -198c25 -15 42 -37 58 -66zM314 556h-64v-190h64c80 0 116 37 116 98c0 59 -32 92 -116 92zM350 -38c49 0 91 -27 91 -81
c0 -68 -60 -123 -141 -144l-34 35c42 18 61 40 61 64c0 27 -24 41 -72 41c0 46 35 85 95 85z" />
    <glyph glyph-name="S" unicode="S" horiz-adv-x="612" 
d="M297 -14c-86 0 -192 21 -255 60l25 148c74 -44 162 -73 239 -73c64 0 96 25 96 70c0 47 -55 70 -147 95c-127 34 -216 77 -216 197c0 153 115 221 258 221c104 0 197 -25 258 -63l-27 -144c-71 47 -170 70 -231 70c-46 0 -85 -16 -85 -60c0 -41 41 -62 151 -93
c152 -42 209 -96 209 -206c0 -137 -80 -222 -275 -222z" />
    <glyph glyph-name="Sacute" unicode="&#x15a;" horiz-adv-x="612" 
d="M355 746h-112l70 169h177zM297 -14c-86 0 -192 21 -255 60l25 148c74 -44 162 -73 239 -73c64 0 96 25 96 70c0 47 -55 70 -147 95c-127 34 -216 77 -216 197c0 153 115 221 258 221c104 0 197 -25 258 -63l-27 -144c-71 47 -170 70 -231 70c-46 0 -85 -16 -85 -60
c0 -41 41 -62 151 -93c152 -42 209 -96 209 -206c0 -137 -80 -222 -275 -222z" />
    <glyph glyph-name="Scaron" unicode="&#x160;" horiz-adv-x="612" 
d="M403 746h-170l-105 169h113l77 -80l76 80h113zM297 -14c-86 0 -192 21 -255 60l25 148c74 -44 162 -73 239 -73c64 0 96 25 96 70c0 47 -55 70 -147 95c-127 34 -216 77 -216 197c0 153 115 221 258 221c104 0 197 -25 258 -63l-27 -144c-71 47 -170 70 -231 70
c-46 0 -85 -16 -85 -60c0 -41 41 -62 151 -93c152 -42 209 -96 209 -206c0 -137 -80 -222 -275 -222z" />
    <glyph glyph-name="Scedilla" unicode="&#x15e;" horiz-adv-x="612" 
d="M572 208c0 -127 -69 -209 -234 -221l-18 -26c59 -14 95 -41 95 -90c0 -64 -56 -97 -130 -97c-47 0 -90 8 -118 23l15 88c32 -17 67 -27 92 -27c16 0 33 8 33 25s-8 36 -69 47l-8 19l24 39c-76 5 -159 25 -212 58l25 148c74 -44 162 -73 239 -73c64 0 96 25 96 70
c0 47 -55 70 -147 95c-127 34 -216 77 -216 197c0 153 115 221 258 221c104 0 197 -25 258 -63l-27 -144c-71 47 -170 70 -231 70c-46 0 -85 -16 -85 -60c0 -41 41 -62 151 -93c152 -42 209 -96 209 -206z" />
    <glyph glyph-name="uni0218" unicode="&#x218;" horiz-adv-x="612" 
d="M297 -14c-86 0 -192 21 -255 60l25 148c74 -44 162 -73 239 -73c64 0 96 25 96 70c0 47 -55 70 -147 95c-127 34 -216 77 -216 197c0 153 115 221 258 221c104 0 197 -25 258 -63l-27 -144c-71 47 -170 70 -231 70c-46 0 -85 -16 -85 -60c0 -41 41 -62 151 -93
c152 -42 209 -96 209 -206c0 -137 -80 -222 -275 -222zM264 -263l-34 35c42 18 61 40 61 64c0 27 -24 41 -72 41c0 46 35 85 95 85c49 0 91 -27 91 -81c0 -68 -60 -123 -141 -144z" />
    <glyph glyph-name="uni1E9E" unicode="&#x1e9e;" horiz-adv-x="695" 
d="M498 458c0 -78 176 -118 176 -277c0 -119 -70 -191 -213 -191c-53 0 -110 9 -148 24l12 135c44 -25 84 -31 117 -31c39 0 63 22 63 54c0 83 -153 127 -153 243c0 71 40 111 84 133h-77c-95 0 -124 -33 -124 -122v-426h-176v402c0 210 86 288 295 288h260v-149
c-80 -9 -116 -38 -116 -83z" />
    <glyph glyph-name="T" unicode="T" horiz-adv-x="633" 
d="M404 0h-175v540h-201v150h577v-150h-201v-540z" />
    <glyph glyph-name="Tcaron" unicode="&#x164;" horiz-adv-x="633" 
d="M403 746h-170l-105 169h113l77 -80l76 80h113zM404 0h-175v540h-201v150h577v-150h-201v-540z" />
    <glyph glyph-name="uni0162" unicode="&#x162;" horiz-adv-x="633" 
d="M404 540v-540h-51l-26 -39c59 -14 95 -41 95 -90c0 -64 -56 -97 -130 -97c-47 0 -90 8 -118 23l15 88c32 -17 67 -27 92 -27c16 0 33 8 33 25s-8 36 -69 47l-8 19l32 51h-40v540h-201v150h577v-150h-201z" />
    <glyph glyph-name="uni021A" unicode="&#x21a;" horiz-adv-x="633" 
d="M404 0h-175v540h-201v150h577v-150h-201v-540zM271 -263l-34 35c42 18 61 40 61 64c0 27 -24 41 -72 41c0 46 35 85 95 85c49 0 91 -27 91 -81c0 -68 -60 -123 -141 -144z" />
    <glyph glyph-name="U" unicode="U" horiz-adv-x="723" 
d="M359 -14c-224 0 -296 126 -296 343v361h175v-389c0 -105 38 -169 128 -169c93 0 118 63 118 161v397h176v-357c0 -221 -74 -347 -301 -347z" />
    <glyph glyph-name="Uacute" unicode="&#xda;" horiz-adv-x="723" 
d="M399 746h-112l70 169h177zM359 -14c-224 0 -296 126 -296 343v361h175v-389c0 -105 38 -169 128 -169c93 0 118 63 118 161v397h176v-357c0 -221 -74 -347 -301 -347z" />
    <glyph glyph-name="Ucircumflex" unicode="&#xdb;" horiz-adv-x="723" 
d="M285 746h-113l105 169h169l104 -169h-112l-76 80zM359 -14c-224 0 -296 126 -296 343v361h175v-389c0 -105 38 -169 128 -169c93 0 118 63 118 161v397h176v-357c0 -221 -74 -347 -301 -347z" />
    <glyph glyph-name="Udieresis" unicode="&#xdc;" horiz-adv-x="723" 
d="M236 747c-54 0 -92 34 -92 85c0 47 35 84 92 84c51 0 89 -34 89 -84c0 -48 -36 -85 -89 -85zM489 747c-53 0 -91 34 -91 85c0 47 35 84 91 84c53 0 90 -34 90 -84c0 -48 -35 -85 -90 -85zM359 -14c-224 0 -296 126 -296 343v361h175v-389c0 -105 38 -169 128 -169
c93 0 118 63 118 161v397h176v-357c0 -221 -74 -347 -301 -347z" />
    <glyph glyph-name="Ugrave" unicode="&#xd9;" horiz-adv-x="723" 
d="M437 746h-113l-134 169h176zM359 -14c-224 0 -296 126 -296 343v361h175v-389c0 -105 38 -169 128 -169c93 0 118 63 118 161v397h176v-357c0 -221 -74 -347 -301 -347z" />
    <glyph glyph-name="Uhungarumlaut" unicode="&#x170;" horiz-adv-x="723" 
d="M297 746h-108l65 169h175zM522 746h-107l75 169h173zM359 -14c-224 0 -296 126 -296 343v361h175v-389c0 -105 38 -169 128 -169c93 0 118 63 118 161v397h176v-357c0 -221 -74 -347 -301 -347z" />
    <glyph glyph-name="Umacron" unicode="&#x16a;" horiz-adv-x="723" 
d="M536 775h-350v116h350v-116zM359 -14c-224 0 -296 126 -296 343v361h175v-389c0 -105 38 -169 128 -169c93 0 118 63 118 161v397h176v-357c0 -221 -74 -347 -301 -347z" />
    <glyph glyph-name="Uogonek" unicode="&#x172;" horiz-adv-x="723" 
d="M484 293v397h176v-357c0 -180 -49 -297 -190 -334c-64 -41 -93 -73 -93 -108c0 -21 13 -30 30 -30c14 0 32 6 49 23l17 -78c-19 -17 -52 -32 -105 -32c-60 0 -113 29 -113 85c0 48 31 89 85 127c-209 7 -277 132 -277 343v361h175v-389c0 -105 38 -169 128 -169
c93 0 118 63 118 161z" />
    <glyph glyph-name="Uring" unicode="&#x16e;" horiz-adv-x="723" 
d="M360 745c-77 0 -132 47 -132 117c0 76 56 123 136 123c76 0 132 -48 132 -120c0 -73 -57 -120 -136 -120zM364 813c29 0 50 20 50 49c0 34 -21 56 -54 56c-30 0 -50 -22 -50 -53c0 -32 20 -52 54 -52zM359 -14c-224 0 -296 126 -296 343v361h175v-389
c0 -105 38 -169 128 -169c93 0 118 63 118 161v397h176v-357c0 -221 -74 -347 -301 -347z" />
    <glyph glyph-name="V" unicode="V" horiz-adv-x="674" 
d="M337 201l152 489h175l-237 -690h-181l-236 690h180z" />
    <glyph glyph-name="W" unicode="W" horiz-adv-x="1015" 
d="M721 192l115 498h169l-193 -690h-186l-124 457l-120 -457h-181l-191 690h178l115 -489l116 489h181z" />
    <glyph glyph-name="X" unicode="X" horiz-adv-x="700" 
d="M452 351l233 -351h-200l-142 238l-141 -238h-187l224 361l-208 329h197l127 -218l126 218h186z" />
    <glyph glyph-name="Y" unicode="Y" horiz-adv-x="667" 
d="M468 690h187l-234 -402v-288h-176v290l-233 400h192l131 -271z" />
    <glyph glyph-name="Yacute" unicode="&#xdd;" horiz-adv-x="667" 
d="M329 915h177l-135 -169h-112zM468 690h187l-234 -402v-288h-176v290l-233 400h192l131 -271z" />
    <glyph glyph-name="Ydieresis" unicode="&#x178;" horiz-adv-x="667" 
d="M208 747c-54 0 -92 34 -92 85c0 47 35 84 92 84c51 0 89 -34 89 -84c0 -48 -36 -85 -89 -85zM461 747c-53 0 -91 34 -91 85c0 47 35 84 91 84c53 0 90 -34 90 -84c0 -48 -35 -85 -90 -85zM468 690h187l-234 -402v-288h-176v290l-233 400h192l131 -271z" />
    <glyph glyph-name="Z" unicode="Z" horiz-adv-x="633" 
d="M586 576l-322 -431h330v-145h-550v114l321 429h-300v147h521v-114z" />
    <glyph glyph-name="Zacute" unicode="&#x179;" horiz-adv-x="633" 
d="M319 915h177l-135 -169h-112zM586 576l-322 -431h330v-145h-550v114l321 429h-300v147h521v-114z" />
    <glyph glyph-name="Zcaron" unicode="&#x17d;" horiz-adv-x="633" 
d="M514 915l-104 -169h-170l-105 169h113l77 -80l76 80h113zM586 576l-322 -431h330v-145h-550v114l321 429h-300v147h521v-114z" />
    <glyph glyph-name="Zdotaccent" unicode="&#x17b;" horiz-adv-x="633" 
d="M325 747c-58 0 -100 36 -100 91c0 52 39 91 100 91c56 0 98 -37 98 -91c0 -52 -39 -91 -98 -91zM586 576l-322 -431h330v-145h-550v114l321 429h-300v147h521v-114z" />
    <glyph glyph-name="a" unicode="a" horiz-adv-x="554" 
d="M268 526c127 0 230 -41 230 -206v-320h-135l-22 86c-39 -65 -95 -100 -165 -100c-79 0 -141 43 -141 135c0 110 83 177 297 203v8c0 44 -23 65 -83 65c-62 0 -130 -29 -172 -54l-28 137c59 29 149 46 219 46zM250 114c33 0 69 20 82 58v78c-106 -23 -142 -45 -142 -89
c0 -28 17 -47 60 -47z" />
    <glyph glyph-name="aacute" unicode="&#xe1;" horiz-adv-x="554" 
d="M277 754h169l-126 -182h-113zM268 526c127 0 230 -41 230 -206v-320h-135l-22 86c-39 -65 -95 -100 -165 -100c-79 0 -141 43 -141 135c0 110 83 177 297 203v8c0 44 -23 65 -83 65c-62 0 -130 -29 -172 -54l-28 137c59 29 149 46 219 46zM250 114c33 0 69 20 82 58v78
c-106 -23 -142 -45 -142 -89c0 -28 17 -47 60 -47z" />
    <glyph glyph-name="abreve" unicode="&#x103;" horiz-adv-x="554" 
d="M275 572c-124 0 -181 75 -181 182h114c1 -34 19 -74 69 -74c51 0 64 38 66 74h114c0 -107 -56 -182 -182 -182zM268 526c127 0 230 -41 230 -206v-320h-135l-22 86c-39 -65 -95 -100 -165 -100c-79 0 -141 43 -141 135c0 110 83 177 297 203v8c0 44 -23 65 -83 65
c-62 0 -130 -29 -172 -54l-28 137c59 29 149 46 219 46zM250 114c33 0 69 20 82 58v78c-106 -23 -142 -45 -142 -89c0 -28 17 -47 60 -47z" />
    <glyph glyph-name="acircumflex" unicode="&#xe2;" horiz-adv-x="554" 
d="M353 572l-76 90l-77 -90h-113l107 182h166l106 -182h-113zM268 526c127 0 230 -41 230 -206v-320h-135l-22 86c-39 -65 -95 -100 -165 -100c-79 0 -141 43 -141 135c0 110 83 177 297 203v8c0 44 -23 65 -83 65c-62 0 -130 -29 -172 -54l-28 137c59 29 149 46 219 46z
M250 114c33 0 69 20 82 58v78c-106 -23 -142 -45 -142 -89c0 -28 17 -47 60 -47z" />
    <glyph glyph-name="adieresis" unicode="&#xe4;" horiz-adv-x="554" 
d="M162 582c-53 0 -91 35 -91 87c0 49 35 87 91 87c51 0 89 -36 89 -87c0 -49 -36 -87 -89 -87zM393 582c-52 0 -90 35 -90 87c0 49 35 87 90 87c51 0 89 -36 89 -87c0 -49 -35 -87 -89 -87zM268 526c127 0 230 -41 230 -206v-320h-135l-22 86c-39 -65 -95 -100 -165 -100
c-79 0 -141 43 -141 135c0 110 83 177 297 203v8c0 44 -23 65 -83 65c-62 0 -130 -29 -172 -54l-28 137c59 29 149 46 219 46zM250 114c33 0 69 20 82 58v78c-106 -23 -142 -45 -142 -89c0 -28 17 -47 60 -47z" />
    <glyph glyph-name="agrave" unicode="&#xe0;" horiz-adv-x="554" 
d="M274 754l71 -182h-113l-126 182h168zM268 526c127 0 230 -41 230 -206v-320h-135l-22 86c-39 -65 -95 -100 -165 -100c-79 0 -141 43 -141 135c0 110 83 177 297 203v8c0 44 -23 65 -83 65c-62 0 -130 -29 -172 -54l-28 137c59 29 149 46 219 46zM250 114
c33 0 69 20 82 58v78c-106 -23 -142 -45 -142 -89c0 -28 17 -47 60 -47z" />
    <glyph glyph-name="amacron" unicode="&#x101;" horiz-adv-x="554" 
d="M106 722h340v-116h-340v116zM268 526c127 0 230 -41 230 -206v-320h-135l-22 86c-39 -65 -95 -100 -165 -100c-79 0 -141 43 -141 135c0 110 83 177 297 203v8c0 44 -23 65 -83 65c-62 0 -130 -29 -172 -54l-28 137c59 29 149 46 219 46zM250 114c33 0 69 20 82 58v78
c-106 -23 -142 -45 -142 -89c0 -28 17 -47 60 -47z" />
    <glyph glyph-name="aogonek" unicode="&#x105;" horiz-adv-x="554" 
d="M482 -116l17 -78c-19 -17 -52 -32 -105 -32c-60 0 -113 29 -113 85c0 53 38 98 106 141h-24l-22 86c-39 -65 -95 -100 -165 -100c-79 0 -141 43 -141 135c0 110 83 177 297 203v8c0 44 -23 65 -83 65c-62 0 -130 -29 -172 -54l-28 137c59 29 149 46 219 46
c127 0 230 -41 230 -206v-320c-65 -41 -95 -74 -95 -109c0 -21 13 -30 30 -30c14 0 32 6 49 23zM250 114c33 0 69 20 82 58v78c-106 -23 -142 -45 -142 -89c0 -28 17 -47 60 -47z" />
    <glyph glyph-name="aring" unicode="&#xe5;" horiz-adv-x="554" 
d="M274 566c-77 0 -132 47 -132 117c0 76 56 123 136 123c76 0 132 -48 132 -120c0 -73 -57 -120 -136 -120zM274 739c-30 0 -50 -22 -50 -53c0 -32 20 -52 54 -52c29 0 50 20 50 49c0 34 -21 56 -54 56zM268 526c127 0 230 -41 230 -206v-320h-135l-22 86
c-39 -65 -95 -100 -165 -100c-79 0 -141 43 -141 135c0 110 83 177 297 203v8c0 44 -23 65 -83 65c-62 0 -130 -29 -172 -54l-28 137c59 29 149 46 219 46zM250 114c33 0 69 20 82 58v78c-106 -23 -142 -45 -142 -89c0 -28 17 -47 60 -47z" />
    <glyph glyph-name="atilde" unicode="&#xe3;" horiz-adv-x="554" 
d="M172 587l-80 6c-6 101 51 151 110 151c78 0 105 -46 141 -46c26 0 35 23 37 45l78 -6c5 -104 -52 -156 -108 -156c-80 0 -106 49 -145 49c-20 0 -32 -21 -33 -43zM268 526c127 0 230 -41 230 -206v-320h-135l-22 86c-39 -65 -95 -100 -165 -100c-79 0 -141 43 -141 135
c0 110 83 177 297 203v8c0 44 -23 65 -83 65c-62 0 -130 -29 -172 -54l-28 137c59 29 149 46 219 46zM250 114c33 0 69 20 82 58v78c-106 -23 -142 -45 -142 -89c0 -28 17 -47 60 -47z" />
    <glyph glyph-name="ae" unicode="&#xe6;" horiz-adv-x="845" 
d="M810 287c0 -25 -2 -50 -4 -71h-306c10 -69 58 -104 130 -104c42 0 91 16 130 42l29 -129c-47 -27 -122 -39 -181 -39c-101 0 -175 33 -220 92c-45 -63 -108 -92 -197 -92c-86 0 -156 43 -156 135c0 110 83 177 297 203v8c0 44 -23 65 -83 65c-62 0 -130 -29 -172 -54
l-28 137c59 29 144 46 214 46c65 0 119 -21 155 -61c43 39 102 61 173 61c159 0 219 -93 219 -239zM593 412c-58 0 -88 -53 -94 -108h159c-2 60 -19 108 -65 108zM250 114c33 0 69 20 82 58v78c-106 -23 -142 -45 -142 -89c0 -28 17 -47 60 -47z" />
    <glyph glyph-name="b" unicode="b" horiz-adv-x="636" 
d="M392 524c124 0 208 -95 208 -260c0 -163 -94 -278 -229 -278c-71 0 -123 24 -158 65l-19 -51h-129v735l170 15v-301c39 48 94 75 157 75zM333 116c60 0 94 55 94 138s-38 138 -98 138c-42 0 -78 -28 -94 -66v-144c17 -40 54 -66 98 -66z" />
    <glyph glyph-name="c" unicode="c" horiz-adv-x="511" 
d="M314 -14c-183 0 -279 106 -279 267c0 167 94 272 273 272c40 0 123 -11 173 -39l-27 -138c-32 26 -79 43 -124 43c-74 0 -123 -47 -123 -134c0 -88 55 -137 131 -137c47 0 87 20 115 47l28 -138c-47 -33 -115 -43 -167 -43z" />
    <glyph glyph-name="cacute" unicode="&#x107;" horiz-adv-x="511" 
d="M335 572h-113l70 182h169zM314 -14c-183 0 -279 106 -279 267c0 167 94 272 273 272c40 0 123 -11 173 -39l-27 -138c-32 26 -79 43 -124 43c-74 0 -123 -47 -123 -134c0 -88 55 -137 131 -137c47 0 87 20 115 47l28 -138c-47 -33 -115 -43 -167 -43z" />
    <glyph glyph-name="ccaron" unicode="&#x10d;" horiz-adv-x="511" 
d="M375 572h-166l-107 182h113l77 -91l76 91h113zM314 -14c-183 0 -279 106 -279 267c0 167 94 272 273 272c40 0 123 -11 173 -39l-27 -138c-32 26 -79 43 -124 43c-74 0 -123 -47 -123 -134c0 -88 55 -137 131 -137c47 0 87 20 115 47l28 -138c-47 -33 -115 -43 -167 -43z
" />
    <glyph glyph-name="ccedilla" unicode="&#xe7;" horiz-adv-x="511" 
d="M453 167l28 -138c-43 -30 -103 -41 -152 -43l-17 -25c59 -14 95 -41 95 -90c0 -64 -56 -97 -130 -97c-47 0 -90 8 -118 23l15 88c32 -17 67 -27 92 -27c16 0 33 8 33 25s-8 36 -69 47l-8 19l26 42c-140 23 -213 121 -213 262c0 167 94 272 273 272c40 0 123 -11 173 -39
l-27 -138c-32 26 -79 43 -124 43c-74 0 -123 -47 -123 -134c0 -88 55 -137 131 -137c47 0 87 20 115 47z" />
    <glyph glyph-name="d" unicode="d" horiz-adv-x="635" 
d="M399 474v261l171 15v-750h-138l-20 80c-39 -61 -94 -94 -165 -94c-124 0 -212 99 -212 262c0 167 80 276 223 276c58 0 105 -17 141 -50zM311 118c35 0 69 21 88 58v153c-18 36 -50 63 -92 63c-61 0 -100 -51 -100 -134c0 -82 36 -140 104 -140z" />
    <glyph glyph-name="eth" unicode="&#xf0;" horiz-adv-x="618" 
d="M547 655l-97 -43c94 -94 133 -216 133 -328c0 -192 -103 -298 -278 -298c-170 0 -270 95 -270 246c0 147 91 234 223 234c59 0 119 -12 158 -48c-16 50 -44 99 -87 139l-137 -61l-42 80l91 41c-33 15 -71 28 -115 35l40 99c82 -15 149 -42 205 -77l137 61zM311 116
c59 0 100 59 100 155v12c-18 52 -56 79 -105 79c-63 0 -99 -46 -99 -121c0 -69 37 -125 104 -125z" />
    <glyph glyph-name="dcaron" unicode="&#x10f;" horiz-adv-x="635" 
d="M648 557l5 220l155 11l-48 -231h-112zM399 474v261l171 15v-750h-138l-20 80c-39 -61 -94 -94 -165 -94c-124 0 -212 99 -212 262c0 167 80 276 223 276c58 0 105 -17 141 -50zM311 118c35 0 69 21 88 58v153c-18 36 -50 63 -92 63c-61 0 -100 -51 -100 -134
c0 -82 36 -140 104 -140z" />
    <glyph glyph-name="dcroat" unicode="&#x111;" horiz-adv-x="635" 
d="M570 672h69v-102h-69v-570h-138l-20 80c-39 -61 -94 -94 -165 -94c-124 0 -212 99 -212 255c0 158 80 268 223 268c58 0 105 -17 141 -50v111h-169v102h169v63l171 15v-78zM311 118c35 0 69 21 88 58v138c-18 36 -50 62 -92 62c-61 0 -100 -51 -100 -126
c0 -74 36 -132 104 -132z" />
    <glyph glyph-name="e" unicode="e" horiz-adv-x="561" 
d="M526 287c0 -25 -2 -50 -4 -71h-322c11 -69 60 -104 141 -104c46 0 96 16 135 42l28 -129c-46 -27 -121 -39 -183 -39c-190 0 -286 102 -286 270c0 159 98 270 256 270c175 0 235 -93 235 -239zM294 412c-58 0 -88 -53 -95 -108h175c-2 60 -19 108 -80 108z" />
    <glyph glyph-name="eacute" unicode="&#xe9;" horiz-adv-x="561" 
d="M296 754h169l-126 -182h-113zM526 287c0 -25 -2 -50 -4 -71h-322c11 -69 60 -104 141 -104c46 0 96 16 135 42l28 -129c-46 -27 -121 -39 -183 -39c-190 0 -286 102 -286 270c0 159 98 270 256 270c175 0 235 -93 235 -239zM294 412c-58 0 -88 -53 -95 -108h175
c-2 60 -19 108 -80 108z" />
    <glyph glyph-name="ecaron" unicode="&#x11b;" horiz-adv-x="561" 
d="M485 754l-106 -182h-166l-107 182h113l77 -91l76 91h113zM526 287c0 -25 -2 -50 -4 -71h-322c11 -69 60 -104 141 -104c46 0 96 16 135 42l28 -129c-46 -27 -121 -39 -183 -39c-190 0 -286 102 -286 270c0 159 98 270 256 270c175 0 235 -93 235 -239zM294 412
c-58 0 -88 -53 -95 -108h175c-2 60 -19 108 -80 108z" />
    <glyph glyph-name="ecircumflex" unicode="&#xea;" horiz-adv-x="561" 
d="M372 572l-76 90l-77 -90h-113l107 182h166l106 -182h-113zM526 287c0 -25 -2 -50 -4 -71h-322c11 -69 60 -104 141 -104c46 0 96 16 135 42l28 -129c-46 -27 -121 -39 -183 -39c-190 0 -286 102 -286 270c0 159 98 270 256 270c175 0 235 -93 235 -239zM294 412
c-58 0 -88 -53 -95 -108h175c-2 60 -19 108 -80 108z" />
    <glyph glyph-name="edieresis" unicode="&#xeb;" horiz-adv-x="561" 
d="M181 582c-53 0 -91 35 -91 87c0 49 35 87 91 87c51 0 89 -36 89 -87c0 -49 -36 -87 -89 -87zM412 582c-52 0 -90 35 -90 87c0 49 35 87 90 87c51 0 89 -36 89 -87c0 -49 -35 -87 -89 -87zM526 287c0 -25 -2 -50 -4 -71h-322c11 -69 60 -104 141 -104c46 0 96 16 135 42
l28 -129c-46 -27 -121 -39 -183 -39c-190 0 -286 102 -286 270c0 159 98 270 256 270c175 0 235 -93 235 -239zM294 412c-58 0 -88 -53 -95 -108h175c-2 60 -19 108 -80 108z" />
    <glyph glyph-name="edotaccent" unicode="&#x117;" horiz-adv-x="561" 
d="M296 574c-58 0 -100 38 -100 95c0 54 39 95 100 95c56 0 98 -39 98 -95c0 -54 -40 -95 -98 -95zM526 287c0 -25 -2 -50 -4 -71h-322c11 -69 60 -104 141 -104c46 0 96 16 135 42l28 -129c-46 -27 -121 -39 -183 -39c-190 0 -286 102 -286 270c0 159 98 270 256 270
c175 0 235 -93 235 -239zM294 412c-58 0 -88 -53 -95 -108h175c-2 60 -19 108 -80 108z" />
    <glyph glyph-name="egrave" unicode="&#xe8;" horiz-adv-x="561" 
d="M293 754l71 -182h-113l-126 182h168zM526 287c0 -25 -2 -50 -4 -71h-322c11 -69 60 -104 141 -104c46 0 96 16 135 42l28 -129c-46 -27 -121 -39 -183 -39c-190 0 -286 102 -286 270c0 159 98 270 256 270c175 0 235 -93 235 -239zM294 412c-58 0 -88 -53 -95 -108h175
c-2 60 -19 108 -80 108z" />
    <glyph glyph-name="emacron" unicode="&#x113;" horiz-adv-x="561" 
d="M125 722h340v-116h-340v116zM526 287c0 -25 -2 -50 -4 -71h-322c11 -69 60 -104 141 -104c46 0 96 16 135 42l28 -129c-46 -27 -121 -39 -183 -39c-190 0 -286 102 -286 270c0 159 98 270 256 270c175 0 235 -93 235 -239zM294 412c-58 0 -88 -53 -95 -108h175
c-2 60 -19 108 -80 108z" />
    <glyph glyph-name="eogonek" unicode="&#x119;" horiz-adv-x="561" 
d="M526 287c0 -25 -2 -50 -4 -71h-322c11 -69 60 -104 141 -104c46 0 96 16 135 42l28 -129c-18 -11 -42 -19 -67 -25c-64 -41 -94 -74 -94 -109c0 -21 13 -30 30 -30c14 0 32 6 49 23l17 -78c-19 -17 -52 -32 -105 -32c-60 0 -113 29 -113 85c0 48 31 89 85 127
c-180 5 -271 106 -271 270c0 159 98 270 256 270c175 0 235 -93 235 -239zM294 412c-58 0 -88 -53 -95 -108h175c-2 60 -19 108 -80 108z" />
    <glyph glyph-name="f" unicode="f" horiz-adv-x="461" 
d="M346 621c-52 0 -69 -27 -69 -73v-37h157v-132h-157v-379h-170v379h-92v114l92 18v44c0 122 79 196 221 196c41 0 100 -7 130 -21l-17 -127c-30 12 -62 18 -95 18z" />
    <glyph glyph-name="g" unicode="g" horiz-adv-x="610" 
d="M418 498l181 22l-6 -132l-90 9c5 -16 7 -34 7 -53c0 -107 -88 -188 -239 -188c-27 0 -51 2 -73 7c-15 -11 -25 -24 -25 -37c0 -23 20 -35 72 -36h111c159 -2 222 -58 222 -148c0 -119 -108 -184 -300 -184c-190 0 -245 48 -245 118c0 52 42 88 107 106
c-63 11 -97 43 -97 94c0 58 47 93 82 112c-58 33 -86 86 -86 150c0 120 98 188 241 188c56 0 102 -10 138 -28zM277 254c41 0 72 28 72 88c0 46 -29 86 -76 86c-43 0 -72 -29 -72 -85c0 -50 27 -89 76 -89zM296 -40h-57c-25 -6 -53 -30 -53 -59c0 -37 42 -55 114 -55
c59 0 115 16 115 60c0 40 -56 53 -119 54z" />
    <glyph glyph-name="gbreve" unicode="&#x11f;" horiz-adv-x="610" 
d="M293 572c-124 0 -181 75 -181 182h114c1 -34 19 -74 69 -74c51 0 64 38 66 74h114c0 -107 -56 -182 -182 -182zM418 498l181 22l-6 -132l-90 9c5 -16 7 -34 7 -53c0 -107 -88 -188 -239 -188c-27 0 -51 2 -73 7c-15 -11 -25 -24 -25 -37c0 -23 20 -35 72 -36h111
c159 -2 222 -58 222 -148c0 -119 -108 -184 -300 -184c-190 0 -245 48 -245 118c0 52 42 88 107 106c-63 11 -97 43 -97 94c0 58 47 93 82 112c-58 33 -86 86 -86 150c0 120 98 188 241 188c56 0 102 -10 138 -28zM277 254c41 0 72 28 72 88c0 46 -29 86 -76 86
c-43 0 -72 -29 -72 -85c0 -50 27 -89 76 -89zM296 -40h-57c-25 -6 -53 -30 -53 -59c0 -37 42 -55 114 -55c59 0 115 16 115 60c0 40 -56 53 -119 54z" />
    <glyph glyph-name="uni0123" unicode="&#x123;" horiz-adv-x="610" 
d="M290 564c-48 0 -91 27 -91 81c0 68 61 123 141 144l34 -35c-42 -19 -61 -40 -61 -64c0 -27 24 -41 73 -42c0 -46 -35 -84 -96 -84zM418 498l181 22l-6 -132l-90 9c5 -16 7 -34 7 -53c0 -107 -88 -188 -239 -188c-27 0 -51 2 -73 7c-15 -11 -25 -24 -25 -37
c0 -23 20 -35 72 -36h111c159 -2 222 -58 222 -148c0 -119 -108 -184 -300 -184c-190 0 -245 48 -245 118c0 52 42 88 107 106c-63 11 -97 43 -97 94c0 58 47 93 82 112c-58 33 -86 86 -86 150c0 120 98 188 241 188c56 0 102 -10 138 -28zM277 254c41 0 72 28 72 88
c0 46 -29 86 -76 86c-43 0 -72 -29 -72 -85c0 -50 27 -89 76 -89zM296 -40h-57c-25 -6 -53 -30 -53 -59c0 -37 42 -55 114 -55c59 0 115 16 115 60c0 40 -56 53 -119 54z" />
    <glyph glyph-name="h" unicode="h" horiz-adv-x="625" 
d="M395 525c116 0 173 -71 173 -208v-317h-169v275c0 71 -22 106 -73 106c-35 0 -71 -22 -91 -60v-321h-170v735l170 15v-306c42 53 99 81 160 81z" />
    <glyph glyph-name="i" unicode="i" horiz-adv-x="299" 
d="M151 574c-58 0 -100 38 -100 95c0 54 39 95 100 95c56 0 98 -39 98 -95c0 -54 -40 -95 -98 -95zM235 0h-170v511h170v-511z" />
    <glyph glyph-name="dotlessi" unicode="&#x131;" horiz-adv-x="299" 
d="M235 0h-170v511h170v-511z" />
    <glyph glyph-name="iacute" unicode="&#xed;" horiz-adv-x="299" 
d="M178 572h-106l55 182h169zM235 0h-170v511h170v-511z" />
    <glyph glyph-name="icircumflex" unicode="&#xee;" horiz-adv-x="299" 
d="M98 572h-109l79 182h166l78 -182h-108l-53 98zM235 0h-170v511h170v-511z" />
    <glyph glyph-name="idieresis" unicode="&#xef;" horiz-adv-x="299" 
d="M47 582c-53 0 -87 35 -87 87c0 49 31 87 87 87c51 0 85 -36 85 -87c0 -49 -32 -87 -85 -87zM257 582c-53 0 -87 35 -87 87c0 49 31 87 87 87c52 0 85 -36 85 -87c0 -49 -31 -87 -85 -87zM235 0h-170v511h170v-511z" />
    <glyph glyph-name="i.loclTRK" horiz-adv-x="299" 
d="M151 574c-58 0 -100 38 -100 95c0 54 39 95 100 95c56 0 98 -39 98 -95c0 -54 -40 -95 -98 -95zM235 0h-170v511h170v-511z" />
    <glyph glyph-name="igrave" unicode="&#xec;" horiz-adv-x="299" 
d="M228 572h-106l-110 182h169zM235 0h-170v511h170v-511z" />
    <glyph glyph-name="imacron" unicode="&#x12b;" horiz-adv-x="299" 
d="M299 606h-299v116h299v-116zM235 0h-170v511h170v-511z" />
    <glyph glyph-name="iogonek" unicode="&#x12f;" horiz-adv-x="299" 
d="M151 574c-58 0 -100 38 -100 95c0 54 39 95 100 95c56 0 98 -39 98 -95c0 -54 -40 -95 -98 -95zM170 -139c14 0 32 6 49 23l17 -78c-19 -17 -52 -32 -105 -32c-60 0 -113 29 -113 85c0 53 38 98 106 141h-59v511h170v-511c-65 -41 -95 -74 -95 -109c0 -21 13 -30 30 -30z
" />
    <glyph glyph-name="j" unicode="j" horiz-adv-x="299" 
d="M151 574c-58 0 -100 38 -100 95c0 54 39 95 100 95c56 0 98 -39 98 -95c0 -54 -40 -95 -98 -95zM44 -243l-52 123c60 20 73 36 73 101v530h170v-484c0 -169 -16 -208 -191 -270z" />
    <glyph glyph-name="uni0237" unicode="&#x237;" horiz-adv-x="299" 
d="M44 -243l-52 123c60 20 73 36 73 101v530h170v-484c0 -169 -16 -208 -191 -270z" />
    <glyph glyph-name="uni006A0301" horiz-adv-x="299" 
d="M178 572h-106l55 182h169zM44 -243l-52 123c60 20 73 36 73 101v530h170v-484c0 -169 -16 -208 -191 -270z" />
    <glyph glyph-name="k" unicode="k" horiz-adv-x="606" 
d="M594 0h-186l-131 220l-42 -42v-178h-170v735l170 15v-454l167 215h190l-183 -213z" />
    <glyph glyph-name="uni0137" unicode="&#x137;" horiz-adv-x="606" 
d="M592 511l-183 -213l185 -298h-186l-131 220l-42 -42v-178h-170v735l170 15v-454l167 215h190zM316 -38c49 0 91 -27 91 -81c0 -68 -60 -123 -141 -144l-34 35c42 18 61 40 61 64c0 27 -24 41 -72 41c0 46 35 85 95 85z" />
    <glyph glyph-name="l" unicode="l" horiz-adv-x="299" 
d="M65 0v735l170 15v-750h-170z" />
    <glyph glyph-name="lacute" unicode="&#x13a;" horiz-adv-x="299" 
d="M188 795h-112l70 169h177zM65 0v735l170 15v-750h-170z" />
    <glyph glyph-name="lcaron" unicode="&#x13e;" horiz-adv-x="299" 
d="M425 557h-112l5 220l155 11zM65 0v735l170 15v-750h-170z" />
    <glyph glyph-name="uni013C" unicode="&#x13c;" horiz-adv-x="299" 
d="M65 0v735l170 15v-750h-170zM104 -263l-34 35c42 18 61 40 61 64c0 27 -24 41 -72 41c0 46 35 85 95 85c49 0 91 -27 91 -81c0 -68 -60 -123 -141 -144z" />
    <glyph glyph-name="ldot" unicode="&#x140;" horiz-adv-x="497" 
d="M65 0v735l170 15v-750h-170zM399 253c-58 0 -100 38 -100 95c0 54 39 95 100 95c56 0 98 -39 98 -95c0 -54 -39 -95 -98 -95z" />
    <glyph glyph-name="lslash" unicode="&#x142;" horiz-adv-x="359" 
d="M265 465l90 48v-123l-90 -48v-342h-170v271l-92 -53v125l92 53v339l170 15v-285z" />
    <glyph glyph-name="m" unicode="m" horiz-adv-x="944" 
d="M714 525c117 0 173 -71 173 -208v-317h-170v275c0 71 -21 106 -72 106c-30 0 -64 -22 -84 -60v-4v-317h-170v275c0 71 -21 106 -72 106c-30 0 -64 -22 -84 -59v-322h-170v511h142l17 -80c42 61 100 94 165 94c79 0 132 -35 156 -102c41 66 102 102 169 102z" />
    <glyph glyph-name="n" unicode="n" horiz-adv-x="625" 
d="M395 525c116 0 173 -71 173 -208v-317h-169v275c0 71 -22 106 -73 106c-35 0 -71 -22 -91 -60v-321h-170v511h142l18 -82c42 63 104 96 170 96z" />
    <glyph glyph-name="nacute" unicode="&#x144;" horiz-adv-x="625" 
d="M318 754h169l-126 -182h-113zM395 525c116 0 173 -71 173 -208v-317h-169v275c0 71 -22 106 -73 106c-35 0 -71 -22 -91 -60v-321h-170v511h142l18 -82c42 63 104 96 170 96z" />
    <glyph glyph-name="ncaron" unicode="&#x148;" horiz-adv-x="625" 
d="M507 754l-106 -182h-166l-107 182h113l77 -91l76 91h113zM395 525c116 0 173 -71 173 -208v-317h-169v275c0 71 -22 106 -73 106c-35 0 -71 -22 -91 -60v-321h-170v511h142l18 -82c42 63 104 96 170 96z" />
    <glyph glyph-name="uni0146" unicode="&#x146;" horiz-adv-x="625" 
d="M395 525c116 0 173 -71 173 -208v-317h-169v275c0 71 -22 106 -73 106c-35 0 -71 -22 -91 -60v-321h-170v511h142l18 -82c42 63 104 96 170 96zM322 -38c49 0 91 -27 91 -81c0 -68 -60 -123 -141 -144l-34 35c42 18 61 40 61 64c0 27 -24 41 -72 41c0 46 35 85 95 85z
" />
    <glyph glyph-name="ntilde" unicode="&#xf1;" horiz-adv-x="625" 
d="M213 587l-80 6c-6 101 51 151 110 151c78 0 105 -46 141 -46c26 0 35 23 37 45l78 -6c5 -104 -52 -156 -108 -156c-80 0 -106 49 -145 49c-20 0 -32 -21 -33 -43zM395 525c116 0 173 -71 173 -208v-317h-169v275c0 71 -22 106 -73 106c-35 0 -71 -22 -91 -60v-321h-170
v511h142l18 -82c42 63 104 96 170 96z" />
    <glyph glyph-name="o" unicode="o" horiz-adv-x="618" 
d="M306 -14c-172 0 -271 104 -271 270c0 160 103 269 278 269c171 0 270 -103 270 -268c0 -161 -103 -271 -277 -271zM312 119c62 0 99 52 99 137c0 82 -40 137 -105 137c-62 0 -99 -51 -99 -136c0 -82 40 -138 105 -138z" />
    <glyph glyph-name="oacute" unicode="&#xf3;" horiz-adv-x="618" 
d="M353 572h-113l70 182h169zM306 -14c-172 0 -271 104 -271 270c0 160 103 269 278 269c171 0 270 -103 270 -268c0 -161 -103 -271 -277 -271zM312 119c62 0 99 52 99 137c0 82 -40 137 -105 137c-62 0 -99 -51 -99 -136c0 -82 40 -138 105 -138z" />
    <glyph glyph-name="ocircumflex" unicode="&#xf4;" horiz-adv-x="618" 
d="M233 572h-113l107 182h166l106 -182h-113l-76 90zM306 -14c-172 0 -271 104 -271 270c0 160 103 269 278 269c171 0 270 -103 270 -268c0 -161 -103 -271 -277 -271zM312 119c62 0 99 52 99 137c0 82 -40 137 -105 137c-62 0 -99 -51 -99 -136c0 -82 40 -138 105 -138z
" />
    <glyph glyph-name="odieresis" unicode="&#xf6;" horiz-adv-x="618" 
d="M195 582c-53 0 -91 35 -91 87c0 49 35 87 91 87c51 0 89 -36 89 -87c0 -49 -36 -87 -89 -87zM426 582c-52 0 -90 35 -90 87c0 49 35 87 90 87c51 0 89 -36 89 -87c0 -49 -35 -87 -89 -87zM306 -14c-172 0 -271 104 -271 270c0 160 103 269 278 269
c171 0 270 -103 270 -268c0 -161 -103 -271 -277 -271zM312 119c62 0 99 52 99 137c0 82 -40 137 -105 137c-62 0 -99 -51 -99 -136c0 -82 40 -138 105 -138z" />
    <glyph glyph-name="ograve" unicode="&#xf2;" horiz-adv-x="618" 
d="M378 572h-113l-126 182h168zM306 -14c-172 0 -271 104 -271 270c0 160 103 269 278 269c171 0 270 -103 270 -268c0 -161 -103 -271 -277 -271zM312 119c62 0 99 52 99 137c0 82 -40 137 -105 137c-62 0 -99 -51 -99 -136c0 -82 40 -138 105 -138z" />
    <glyph glyph-name="ohungarumlaut" unicode="&#x151;" horiz-adv-x="618" 
d="M256 572h-110l63 182h163zM475 572h-111l73 182h165zM306 -14c-172 0 -271 104 -271 270c0 160 103 269 278 269c171 0 270 -103 270 -268c0 -161 -103 -271 -277 -271zM312 119c62 0 99 52 99 137c0 82 -40 137 -105 137c-62 0 -99 -51 -99 -136c0 -82 40 -138 105 -138
z" />
    <glyph glyph-name="omacron" unicode="&#x14d;" horiz-adv-x="618" 
d="M479 606h-340v116h340v-116zM306 -14c-172 0 -271 104 -271 270c0 160 103 269 278 269c171 0 270 -103 270 -268c0 -161 -103 -271 -277 -271zM312 119c62 0 99 52 99 137c0 82 -40 137 -105 137c-62 0 -99 -51 -99 -136c0 -82 40 -138 105 -138z" />
    <glyph glyph-name="oslash" unicode="&#xf8;" horiz-adv-x="618" 
d="M569 537l-58 -83c47 -46 72 -114 72 -197c0 -161 -103 -271 -277 -271c-44 0 -83 7 -116 19l-61 -85l-83 55l59 85c-46 47 -70 114 -70 196c0 160 103 269 278 269c42 0 79 -6 112 -18l58 83zM306 401c-66 0 -104 -53 -104 -144c0 -29 5 -56 14 -78l141 209
c-15 8 -32 13 -51 13zM312 110c66 0 104 55 104 146c0 29 -5 54 -13 75l-140 -208c14 -9 31 -13 49 -13z" />
    <glyph glyph-name="otilde" unicode="&#xf5;" horiz-adv-x="618" 
d="M383 581c-80 0 -106 49 -145 49c-20 0 -32 -21 -33 -43l-80 6c-6 101 51 151 110 151c78 0 105 -46 141 -46c26 0 35 23 37 45l78 -6c5 -104 -52 -156 -108 -156zM306 -14c-172 0 -271 104 -271 270c0 160 103 269 278 269c171 0 270 -103 270 -268
c0 -161 -103 -271 -277 -271zM312 119c62 0 99 52 99 137c0 82 -40 137 -105 137c-62 0 -99 -51 -99 -136c0 -82 40 -138 105 -138z" />
    <glyph glyph-name="oe" unicode="&#x153;" horiz-adv-x="945" 
d="M910 287c0 -25 -2 -50 -4 -71h-321c10 -69 60 -104 140 -104c47 0 96 16 135 42l28 -129c-46 -27 -121 -39 -168 -39c-105 0 -181 34 -226 95c-41 -59 -106 -95 -194 -95c-165 0 -265 104 -265 270c0 160 103 270 264 270c91 0 156 -35 196 -93c42 58 108 93 192 93
c159 0 223 -93 223 -239zM678 412c-58 0 -88 -53 -94 -108h174c-2 60 -19 108 -80 108zM312 119c62 0 99 52 99 137c0 82 -40 137 -105 137c-63 0 -99 -51 -99 -136c0 -82 40 -138 105 -138z" />
    <glyph glyph-name="p" unicode="p" horiz-adv-x="636" 
d="M392 524c124 0 208 -95 208 -260c0 -163 -94 -278 -230 -278c-57 0 -101 16 -135 43v-228l-170 -14v724h142l17 -77c40 57 99 90 168 90zM333 116c60 0 94 55 94 138s-38 138 -98 138c-42 0 -78 -28 -94 -66v-144c17 -40 54 -66 98 -66z" />
    <glyph glyph-name="thorn" unicode="&#xfe;" horiz-adv-x="636" 
d="M392 524c124 0 208 -95 208 -260c0 -163 -94 -278 -230 -278c-57 0 -101 16 -135 43v-228l-170 -14v948l170 15v-301c39 48 94 75 157 75zM333 116c60 0 94 55 94 138s-38 138 -98 138c-42 0 -78 -28 -94 -66v-144c17 -40 54 -66 98 -66z" />
    <glyph glyph-name="q" unicode="q" horiz-adv-x="629" 
d="M415 457l12 54h143v-710l-171 -14v279c-38 -52 -86 -80 -152 -80c-124 0 -212 99 -212 262c0 167 80 276 223 276c67 0 121 -24 157 -67zM311 118c35 0 69 21 88 58v153c-18 36 -50 63 -92 63c-61 0 -100 -51 -100 -134c0 -82 36 -140 104 -140z" />
    <glyph glyph-name="r" unicode="r" horiz-adv-x="444" 
d="M398 523c13 0 28 -2 38 -7l-24 -186c-24 11 -58 18 -84 18c-46 0 -78 -23 -93 -72v-276h-170v511h142l18 -93c36 67 93 105 173 105z" />
    <glyph glyph-name="racute" unicode="&#x155;" horiz-adv-x="444" 
d="M259 754h169l-126 -182h-113zM398 523c13 0 28 -2 38 -7l-24 -186c-24 11 -58 18 -84 18c-46 0 -78 -23 -93 -72v-276h-170v511h142l18 -93c36 67 93 105 173 105z" />
    <glyph glyph-name="rcaron" unicode="&#x159;" horiz-adv-x="444" 
d="M420 754l-78 -182h-166l-79 182h109l53 -98l53 98h108zM398 523c13 0 28 -2 38 -7l-24 -186c-24 11 -58 18 -84 18c-46 0 -78 -23 -93 -72v-276h-170v511h142l18 -93c36 67 93 105 173 105z" />
    <glyph glyph-name="uni0157" unicode="&#x157;" horiz-adv-x="444" 
d="M398 523c13 0 28 -2 38 -7l-24 -186c-24 11 -58 18 -84 18c-46 0 -78 -23 -93 -72v-276h-170v511h142l18 -93c36 67 93 105 173 105zM154 -38c49 0 91 -27 91 -81c0 -68 -60 -123 -141 -144l-34 35c42 18 61 40 61 64c0 27 -24 41 -72 41c0 46 35 85 95 85z" />
    <glyph glyph-name="s" unicode="s" horiz-adv-x="513" 
d="M250 -14c-65 0 -150 11 -203 40l18 129c60 -35 142 -55 188 -55c40 0 58 19 58 44c0 28 -30 42 -104 61c-128 32 -166 77 -166 158c0 119 103 163 217 163c78 0 150 -16 203 -43l-20 -127c-56 35 -128 56 -179 56c-40 0 -58 -16 -58 -41c0 -26 17 -37 113 -62
c96 -24 157 -60 157 -146c0 -116 -78 -177 -224 -177z" />
    <glyph glyph-name="sacute" unicode="&#x15b;" horiz-adv-x="513" 
d="M307 572h-113l70 182h169zM250 -14c-65 0 -150 11 -203 40l18 129c60 -35 142 -55 188 -55c40 0 58 19 58 44c0 28 -30 42 -104 61c-128 32 -166 77 -166 158c0 119 103 163 217 163c78 0 150 -16 203 -43l-20 -127c-56 35 -128 56 -179 56c-40 0 -58 -16 -58 -41
c0 -26 17 -37 113 -62c96 -24 157 -60 157 -146c0 -116 -78 -177 -224 -177z" />
    <glyph glyph-name="scaron" unicode="&#x161;" horiz-adv-x="513" 
d="M347 572h-166l-107 182h113l77 -91l76 91h113zM250 -14c-65 0 -150 11 -203 40l18 129c60 -35 142 -55 188 -55c40 0 58 19 58 44c0 28 -30 42 -104 61c-128 32 -166 77 -166 158c0 119 103 163 217 163c78 0 150 -16 203 -43l-20 -127c-56 35 -128 56 -179 56
c-40 0 -58 -16 -58 -41c0 -26 17 -37 113 -62c96 -24 157 -60 157 -146c0 -116 -78 -177 -224 -177z" />
    <glyph glyph-name="scedilla" unicode="&#x15f;" horiz-adv-x="513" 
d="M474 163c0 -107 -66 -167 -192 -176l-17 -26c59 -14 95 -41 95 -90c0 -64 -56 -97 -130 -97c-47 0 -90 8 -118 23l15 88c32 -17 67 -27 92 -27c16 0 33 8 33 25s-8 36 -69 47l-8 19l25 39c-55 4 -113 16 -153 38l18 129c60 -35 142 -55 188 -55c40 0 58 19 58 44
c0 28 -30 42 -104 61c-128 32 -166 77 -166 158c0 119 103 163 217 163c78 0 150 -16 203 -43l-20 -127c-56 35 -128 56 -179 56c-40 0 -58 -16 -58 -41c0 -26 17 -37 113 -62c96 -24 157 -60 157 -146z" />
    <glyph glyph-name="uni0219" unicode="&#x219;" horiz-adv-x="513" 
d="M250 -14c-65 0 -150 11 -203 40l18 129c60 -35 142 -55 188 -55c40 0 58 19 58 44c0 28 -30 42 -104 61c-128 32 -166 77 -166 158c0 119 103 163 217 163c78 0 150 -16 203 -43l-20 -127c-56 35 -128 56 -179 56c-40 0 -58 -16 -58 -41c0 -26 17 -37 113 -62
c96 -24 157 -60 157 -146c0 -116 -78 -177 -224 -177zM209 -263l-34 35c42 18 61 40 61 64c0 27 -24 41 -72 41c0 46 35 85 95 85c49 0 91 -27 91 -81c0 -68 -60 -123 -141 -144z" />
    <glyph glyph-name="germandbls" unicode="&#xdf;" horiz-adv-x="661" 
d="M478 408c0 -61 154 -115 154 -245c0 -114 -69 -177 -182 -177c-55 0 -107 11 -139 30l17 119c22 -19 53 -38 79 -38c31 0 53 24 53 68c0 90 -130 126 -130 222c0 74 93 98 93 175c0 37 -21 66 -66 66c-63 0 -88 -50 -88 -136v-492h-170v379h-84v114l86 18
c14 141 86 240 260 240c122 0 227 -66 227 -166c0 -114 -110 -134 -110 -177z" />
    <glyph glyph-name="t" unicode="t" horiz-adv-x="456" 
d="M407 148l23 -133c-45 -22 -95 -29 -147 -29c-148 0 -189 71 -189 172v221h-75v114l75 18l23 132l143 13v-145h159v-132h-159v-191c0 -43 24 -68 64 -68c23 0 50 9 83 28z" />
    <glyph glyph-name="tcaron" unicode="&#x165;" horiz-adv-x="456" 
d="M326 557l6 220l154 11l-48 -231h-112zM324 120c23 0 50 9 83 28l23 -133c-45 -22 -95 -29 -147 -29c-148 0 -189 71 -189 172v221h-75v114l75 18l23 132l143 13v-145h159v-132h-159v-191c0 -43 24 -68 64 -68z" />
    <glyph glyph-name="uni0163" unicode="&#x163;" horiz-adv-x="456" 
d="M291 -14l-17 -25c59 -14 95 -41 95 -90c0 -64 -56 -97 -130 -97c-47 0 -90 8 -118 23l15 88c32 -17 67 -27 92 -27c16 0 33 8 33 25s-8 36 -69 47l-8 19l28 44c-91 20 -118 83 -118 165v221h-75v114l75 18l23 132l143 13v-145h159v-132h-159v-191c0 -43 24 -68 64 -68
c23 0 50 9 83 28l23 -133c-43 -21 -90 -28 -139 -29z" />
    <glyph glyph-name="uni021B" unicode="&#x21b;" horiz-adv-x="456" 
d="M407 148l23 -133c-45 -22 -95 -29 -147 -29c-148 0 -189 71 -189 172v221h-75v114l75 18l23 132l143 13v-145h159v-132h-159v-191c0 -43 24 -68 64 -68c23 0 50 9 83 28zM268 -38c49 0 91 -27 91 -81c0 -68 -60 -123 -141 -144l-34 35c42 18 61 40 61 64
c0 27 -24 41 -72 41c0 46 35 85 95 85z" />
    <glyph glyph-name="u" unicode="u" horiz-adv-x="621" 
d="M385 188v323h172v-511h-145l-17 79c-41 -60 -100 -93 -165 -93c-116 0 -173 72 -173 208v317h170v-275c0 -70 21 -106 72 -106c31 0 66 21 86 58z" />
    <glyph glyph-name="uacute" unicode="&#xfa;" horiz-adv-x="621" 
d="M307 754h169l-126 -182h-113zM385 188v323h172v-511h-145l-17 79c-41 -60 -100 -93 -165 -93c-116 0 -173 72 -173 208v317h170v-275c0 -70 21 -106 72 -106c31 0 66 21 86 58z" />
    <glyph glyph-name="ucircumflex" unicode="&#xfb;" horiz-adv-x="621" 
d="M383 572l-76 90l-77 -90h-113l107 182h166l106 -182h-113zM385 188v323h172v-511h-145l-17 79c-41 -60 -100 -93 -165 -93c-116 0 -173 72 -173 208v317h170v-275c0 -70 21 -106 72 -106c31 0 66 21 86 58z" />
    <glyph glyph-name="udieresis" unicode="&#xfc;" horiz-adv-x="621" 
d="M192 582c-53 0 -91 35 -91 87c0 49 35 87 91 87c51 0 89 -36 89 -87c0 -49 -36 -87 -89 -87zM423 582c-52 0 -90 35 -90 87c0 49 35 87 90 87c51 0 89 -36 89 -87c0 -49 -35 -87 -89 -87zM385 188v323h172v-511h-145l-17 79c-41 -60 -100 -93 -165 -93
c-116 0 -173 72 -173 208v317h170v-275c0 -70 21 -106 72 -106c31 0 66 21 86 58z" />
    <glyph glyph-name="ugrave" unicode="&#xf9;" horiz-adv-x="621" 
d="M305 754l71 -182h-113l-126 182h168zM385 188v323h172v-511h-145l-17 79c-41 -60 -100 -93 -165 -93c-116 0 -173 72 -173 208v317h170v-275c0 -70 21 -106 72 -106c31 0 66 21 86 58z" />
    <glyph glyph-name="uhungarumlaut" unicode="&#x171;" horiz-adv-x="621" 
d="M206 754h163l-116 -182h-110zM599 754l-127 -182h-111l73 182h165zM385 188v323h172v-511h-145l-17 79c-41 -60 -100 -93 -165 -93c-116 0 -173 72 -173 208v317h170v-275c0 -70 21 -106 72 -106c31 0 66 21 86 58z" />
    <glyph glyph-name="umacron" unicode="&#x16b;" horiz-adv-x="621" 
d="M137 722h340v-116h-340v116zM385 188v323h172v-511h-145l-17 79c-41 -60 -100 -93 -165 -93c-116 0 -173 72 -173 208v317h170v-275c0 -70 21 -106 72 -106c31 0 66 21 86 58z" />
    <glyph glyph-name="uogonek" unicode="&#x173;" horiz-adv-x="621" 
d="M541 -116l17 -78c-19 -17 -52 -32 -105 -32c-60 0 -113 29 -113 85c0 53 38 98 106 141h-34l-17 79c-41 -60 -100 -93 -165 -93c-116 0 -173 72 -173 208v317h170v-275c0 -70 21 -106 72 -106c31 0 66 21 86 58v323h172v-511c-65 -41 -95 -74 -95 -109
c0 -21 13 -30 30 -30c14 0 32 6 49 23z" />
    <glyph glyph-name="uring" unicode="&#x16f;" horiz-adv-x="621" 
d="M305 566c-77 0 -132 47 -132 117c0 76 56 123 136 123c76 0 132 -48 132 -120c0 -73 -57 -120 -136 -120zM305 739c-30 0 -50 -22 -50 -53c0 -32 20 -52 54 -52c29 0 50 20 50 49c0 34 -21 56 -54 56zM385 188v323h172v-511h-145l-17 79c-41 -60 -100 -93 -165 -93
c-116 0 -173 72 -173 208v317h170v-275c0 -70 21 -106 72 -106c31 0 66 21 86 58z" />
    <glyph glyph-name="v" unicode="v" horiz-adv-x="559" 
d="M283 167l97 344h177l-194 -511h-169l-192 511h183z" />
    <glyph glyph-name="w" unicode="w" horiz-adv-x="833" 
d="M581 164l75 347h171l-146 -511h-177l-89 309l-89 -309h-176l-144 511h177l70 -349l87 349h154z" />
    <glyph glyph-name="x" unicode="x" horiz-adv-x="591" 
d="M393 257l186 -257h-191l-100 156l-96 -156h-181l180 263l-169 248h189l91 -149l94 149h173z" />
    <glyph glyph-name="y" unicode="y" horiz-adv-x="560" 
d="M284 171l97 340h177l-183 -482c-75 -196 -139 -244 -264 -244c-28 0 -67 5 -102 14l19 136c22 -9 50 -18 74 -18c47 0 67 29 84 73l7 21l-191 500h183z" />
    <glyph glyph-name="yacute" unicode="&#xfd;" horiz-adv-x="560" 
d="M285 754h169l-126 -182h-113zM284 171l97 340h177l-183 -482c-75 -196 -139 -244 -264 -244c-28 0 -67 5 -102 14l19 136c22 -9 50 -18 74 -18c47 0 67 29 84 73l7 21l-191 500h183z" />
    <glyph glyph-name="ydieresis" unicode="&#xff;" horiz-adv-x="560" 
d="M170 582c-53 0 -91 35 -91 87c0 49 35 87 91 87c51 0 89 -36 89 -87c0 -49 -36 -87 -89 -87zM401 582c-52 0 -90 35 -90 87c0 49 35 87 90 87c51 0 89 -36 89 -87c0 -49 -35 -87 -89 -87zM284 171l97 340h177l-183 -482c-75 -196 -139 -244 -264 -244
c-28 0 -67 5 -102 14l19 136c22 -9 50 -18 74 -18c47 0 67 29 84 73l7 21l-191 500h183z" />
    <glyph glyph-name="z" unicode="z" horiz-adv-x="537" 
d="M497 417l-237 -285h241v-132h-460v94l233 285h-227v132h450v-94z" />
    <glyph glyph-name="zacute" unicode="&#x17a;" horiz-adv-x="537" 
d="M275 754h169l-126 -182h-113zM497 417l-237 -285h241v-132h-460v94l233 285h-227v132h450v-94z" />
    <glyph glyph-name="zcaron" unicode="&#x17e;" horiz-adv-x="537" 
d="M464 754l-106 -182h-166l-107 182h113l77 -91l76 91h113zM497 417l-237 -285h241v-132h-460v94l233 285h-227v132h450v-94z" />
    <glyph glyph-name="zdotaccent" unicode="&#x17c;" horiz-adv-x="537" 
d="M275 574c-58 0 -100 38 -100 95c0 54 39 95 100 95c56 0 98 -39 98 -95c0 -54 -40 -95 -98 -95zM497 417l-237 -285h241v-132h-460v94l233 285h-227v132h450v-94z" />
    <glyph glyph-name="germandbls.calt" horiz-adv-x="695" 
d="M498 458c0 -78 176 -118 176 -277c0 -119 -70 -191 -213 -191c-53 0 -110 9 -148 24l12 135c44 -25 84 -31 117 -31c39 0 63 22 63 54c0 83 -153 127 -153 243c0 71 40 111 84 133h-77c-95 0 -124 -33 -124 -122v-426h-176v402c0 210 86 288 295 288h260v-149
c-80 -9 -116 -38 -116 -83z" />
    <glyph glyph-name="ordfeminine" unicode="&#xaa;" horiz-adv-x="416" 
d="M202 704c118 0 176 -45 176 -155v-233h-95l-21 73c-29 -55 -74 -86 -131 -86c-59 0 -107 34 -107 101c0 77 68 127 227 147v6c0 26 -10 50 -57 50c-52 0 -107 -22 -138 -41l-22 105c47 21 118 33 168 33zM190 401c22 0 50 13 61 38v56c-79 -17 -104 -35 -104 -62
c0 -19 12 -32 43 -32z" />
    <glyph glyph-name="ordmasculine" unicode="&#xba;" horiz-adv-x="461" 
d="M228 302c-130 0 -202 76 -202 199c0 121 76 202 208 202c130 0 201 -79 201 -200s-75 -201 -207 -201zM233 406c45 0 69 38 69 96c0 56 -27 97 -74 97c-44 0 -69 -38 -69 -96s28 -97 74 -97z" />
    <glyph glyph-name="pi" unicode="&#x3c0;" horiz-adv-x="663" 
d="M643 511v-132h-75v-379h-170v379h-132v-379h-170v379h-75v132h622z" />
    <glyph glyph-name="zero" unicode="0" horiz-adv-x="674" 
d="M334 -14c-174 0 -292 103 -292 281s123 283 298 283s292 -100 292 -280c0 -177 -113 -284 -298 -284zM341 119c71 0 119 52 119 148c0 94 -54 151 -127 151c-72 0 -118 -53 -118 -148c0 -94 53 -151 126 -151z" />
    <glyph glyph-name="one" unicode="1" horiz-adv-x="422" 
d="M36 446l215 93h89v-539h-170v373l-134 -61v134z" />
    <glyph glyph-name="two" unicode="2" horiz-adv-x="542" 
d="M266 136h235v-136h-469v103c157 99 272 183 272 251c0 39 -26 67 -92 67c-52 0 -116 -27 -148 -51l-24 137c58 30 143 46 213 46c130 0 223 -51 223 -160c0 -111 -101 -197 -210 -257z" />
    <glyph glyph-name="three" unicode="3" horiz-adv-x="549" 
d="M343 212c100 -19 169 -72 169 -173c0 -132 -106 -211 -273 -211c-77 0 -151 15 -209 44l24 138c52 -30 126 -49 183 -49c67 0 101 27 101 85c0 66 -63 93 -145 93h-52v126h53c83 0 126 38 126 89c0 45 -41 67 -95 67c-49 0 -100 -16 -156 -49l-25 132
c52 31 138 49 215 49c157 0 231 -74 231 -167c0 -89 -61 -144 -147 -174z" />
    <glyph glyph-name="four" unicode="4" horiz-adv-x="616" 
d="M488 546v-409h100v-128h-100v-166l-157 -13v179h-306v111l287 426h176zM342 390l-163 -255h163v255z" />
    <glyph glyph-name="five" unicode="5" horiz-adv-x="554" 
d="M272 276c141 0 245 -63 245 -209c0 -161 -100 -239 -277 -239c-82 0 -149 13 -206 41l24 139c50 -30 109 -48 176 -48s112 32 112 101c0 70 -65 98 -127 98c-38 0 -69 -8 -105 -19l-58 23l27 381l392 -5l-1 -137l-251 3l-13 -135c20 4 40 6 62 6z" />
    <glyph glyph-name="six" unicode="6" horiz-adv-x="614" 
d="M374 409c114 0 199 -66 199 -191c0 -144 -98 -233 -259 -233c-177 0 -272 116 -272 277c0 226 141 401 421 445l49 -127c-163 -30 -278 -114 -310 -240c45 44 110 69 172 69zM318 111c53 0 92 37 92 98c0 63 -47 98 -102 98c-41 0 -82 -21 -104 -55
c4 -82 41 -141 114 -141z" />
    <glyph glyph-name="seven" unicode="7" horiz-adv-x="527" 
d="M26 398v141h465v-106l-238 -602l-176 12l227 555h-278z" />
    <glyph glyph-name="eight" unicode="8" horiz-adv-x="605" 
d="M408 367c97 -34 155 -90 155 -173c0 -137 -109 -209 -259 -209c-156 0 -262 65 -262 184c0 82 58 140 131 167c-67 28 -120 81 -120 163c0 137 107 204 254 204c137 0 237 -62 237 -176c0 -86 -67 -138 -136 -160zM299 582c-52 0 -84 -32 -84 -73c0 -57 49 -81 116 -105
c39 25 55 64 55 97c0 47 -37 81 -87 81zM309 104c53 0 91 29 91 81c0 50 -43 81 -133 108c-42 -23 -63 -59 -63 -98c0 -58 49 -91 105 -91z" />
    <glyph glyph-name="nine" unicode="9" horiz-adv-x="614" 
d="M301 554c177 0 271 -115 271 -277c0 -233 -142 -408 -422 -452l-49 127c164 30 280 115 312 249c-45 -45 -111 -70 -173 -70c-117 0 -199 68 -199 190c0 145 98 233 260 233zM306 232c41 0 82 20 103 55c-2 82 -39 141 -112 141c-53 0 -93 -37 -93 -99
c0 -61 48 -97 102 -97z" />
    <glyph glyph-name="zero.lf" horiz-adv-x="709" 
d="M352 -15c-193 0 -307 142 -307 357c0 218 116 361 313 361c192 0 306 -141 306 -357c0 -218 -116 -361 -312 -361zM359 121c88 0 131 91 131 221c0 132 -47 224 -139 224c-89 0 -131 -90 -131 -220c0 -133 46 -225 139 -225z" />
    <glyph glyph-name="one.lf" horiz-adv-x="443" 
d="M21 588l243 102h89v-690h-172v522l-160 -69v135z" />
    <glyph glyph-name="two.lf" horiz-adv-x="570" 
d="M305 193l-61 -51h284v-142h-496v104l153 143c111 103 155 168 155 228c0 61 -46 91 -111 91c-53 0 -106 -22 -156 -66l-24 145c49 31 130 58 219 58c155 0 244 -81 244 -196c0 -116 -82 -210 -207 -314z" />
    <glyph glyph-name="three.lf" horiz-adv-x="576" 
d="M363 366c106 -19 174 -72 174 -170c0 -132 -97 -210 -281 -210c-87 0 -162 17 -221 46l23 138c54 -30 132 -51 195 -51c71 0 110 27 110 84c0 66 -70 90 -156 90h-55v125h53c91 0 136 38 136 86c0 45 -45 66 -106 66c-49 0 -104 -16 -162 -49l-24 132
c50 30 142 50 220 50c166 0 242 -75 242 -166c0 -87 -60 -142 -148 -171z" />
    <glyph glyph-name="four.lf" horiz-adv-x="650" 
d="M506 690v-413h105v-128h-105v-149h-157v149h-318v112l300 429h175zM359 533l-177 -258h177v258z" />
    <glyph glyph-name="five.lf" horiz-adv-x="579" 
d="M294 425c141 0 246 -58 246 -205c0 -162 -104 -235 -285 -235c-87 0 -162 14 -221 42l24 138c55 -29 120 -46 198 -46c67 0 112 26 112 95c0 70 -63 94 -132 94c-41 0 -75 -8 -114 -19l-59 23l29 378h405v-137h-265l-12 -134c24 4 50 6 74 6z" />
    <glyph glyph-name="six.lf" horiz-adv-x="619" 
d="M378 409c116 0 204 -65 204 -191c0 -144 -100 -233 -264 -233c-180 0 -275 118 -275 280c0 226 144 398 426 442l49 -127c-166 -30 -286 -113 -317 -242c45 46 112 71 177 71zM322 111c55 0 97 38 97 99c0 64 -51 98 -107 98c-42 0 -85 -21 -107 -56
c3 -81 41 -141 117 -141z" />
    <glyph glyph-name="seven.lf" horiz-adv-x="540" 
d="M22 548v142h484v-106l-252 -584h-180l244 548h-296z" />
    <glyph glyph-name="eight.lf" horiz-adv-x="631" 
d="M424 367c102 -34 162 -90 162 -173c0 -137 -112 -209 -268 -209c-163 0 -273 65 -273 184c0 82 62 140 139 167c-72 29 -127 82 -127 163c0 137 112 204 263 204c143 0 247 -62 247 -176c0 -87 -70 -139 -143 -160zM313 582c-58 0 -94 -32 -94 -73c0 -58 54 -82 126 -105
c43 24 63 64 63 97c0 47 -40 81 -95 81zM323 104c58 0 100 29 100 81s-49 82 -145 109c-45 -23 -70 -60 -70 -99c0 -58 52 -91 115 -91z" />
    <glyph glyph-name="nine.lf" horiz-adv-x="613" 
d="M297 704c179 0 273 -115 273 -276c0 -226 -142 -401 -422 -446l-49 128c162 30 279 113 311 239c-45 -44 -111 -68 -174 -68c-114 0 -199 66 -199 190c0 145 98 233 260 233zM303 383c42 0 83 19 105 53c-3 83 -40 143 -114 143c-54 0 -94 -38 -94 -100
c0 -64 48 -96 103 -96z" />
    <glyph glyph-name="uni2080" unicode="&#x2080;" horiz-adv-x="469" 
d="M232 -139c-124 0 -197 82 -197 207c0 126 73 211 202 211c125 0 198 -84 198 -208c0 -126 -75 -210 -203 -210zM237 -39c48 0 70 41 70 107c0 70 -24 111 -75 111c-48 0 -70 -41 -70 -108c0 -68 23 -110 75 -110z" />
    <glyph glyph-name="uni2081" unicode="&#x2081;" horiz-adv-x="312" 
d="M21 209l160 61h63v-400h-124v283l-99 -35v91z" />
    <glyph glyph-name="uni2082" unicode="&#x2082;" horiz-adv-x="373" 
d="M211 -9l-29 -21h159v-100h-319v75l101 79c66 52 80 81 80 110c0 30 -24 45 -60 45c-31 0 -68 -12 -95 -33l-16 99c36 21 94 34 137 34c114 0 161 -51 161 -116c0 -71 -49 -121 -119 -172z" />
    <glyph glyph-name="uni2083" unicode="&#x2083;" horiz-adv-x="380" 
d="M246 81c62 -12 104 -44 104 -98c0 -74 -55 -122 -177 -122c-58 0 -111 11 -147 26l17 97c30 -16 77 -30 123 -30s62 18 62 40c0 35 -38 45 -83 45h-46v68h35c47 0 83 11 83 43c0 24 -24 37 -57 37s-71 -11 -108 -31l-19 92c39 19 89 31 148 31c103 0 152 -37 152 -96
c0 -53 -32 -85 -87 -102z" />
    <glyph glyph-name="uni2084" unicode="&#x2084;" horiz-adv-x="424" 
d="M335 270v-226h66v-94h-69v-80h-117v80h-195v82l171 238h144zM229 197l-111 -163h111v163z" />
    <glyph glyph-name="uni2085" unicode="&#x2085;" horiz-adv-x="379" 
d="M198 111c94 0 151 -33 151 -112c0 -92 -70 -138 -185 -138c-52 0 -99 8 -138 24l17 98c33 -16 71 -29 115 -29c43 0 67 18 67 49c0 36 -35 47 -73 47c-23 0 -49 -5 -71 -11l-41 15l18 216h268v-97h-171l-7 -65c16 2 35 3 50 3z" />
    <glyph glyph-name="uni2086" unicode="&#x2086;" horiz-adv-x="411" 
d="M258 106c77 0 129 -40 129 -109c0 -83 -65 -136 -171 -136c-118 0 -182 72 -182 167c0 143 96 233 280 257l33 -87c-101 -16 -177 -55 -196 -123c29 21 64 31 107 31zM220 -54c29 0 53 18 53 48c0 36 -29 52 -60 52c-27 0 -50 -11 -63 -27c6 -45 30 -73 70 -73z" />
    <glyph glyph-name="uni2087" unicode="&#x2087;" horiz-adv-x="353" 
d="M22 169v101h306v-79l-153 -321h-127l147 299h-173z" />
    <glyph glyph-name="uni2088" unicode="&#x2088;" horiz-adv-x="424" 
d="M295 86c58 -20 95 -50 95 -100c0 -83 -66 -125 -177 -125c-114 0 -178 39 -178 106c0 50 39 82 88 94c-41 15 -82 45 -82 99c0 72 66 119 175 119c92 0 161 -36 161 -104c0 -50 -42 -77 -82 -89zM208 202c-30 0 -53 -15 -53 -39c0 -26 25 -38 78 -51c20 12 32 29 32 45
c0 24 -19 45 -57 45zM218 -62c37 0 55 18 55 39c0 28 -23 44 -88 57c-21 -11 -33 -29 -33 -51c0 -24 22 -45 66 -45z" />
    <glyph glyph-name="uni2089" unicode="&#x2089;" horiz-adv-x="411" 
d="M195 279c118 0 182 -72 182 -167c0 -143 -96 -233 -280 -257l-33 87c101 16 177 55 196 123c-29 -21 -64 -31 -107 -31c-77 0 -129 40 -129 109c0 83 65 136 171 136zM198 94c27 0 50 11 63 27c-6 45 -30 73 -70 73c-29 0 -53 -18 -53 -48c0 -36 29 -52 60 -52z" />
    <glyph glyph-name="zero.dnom" horiz-adv-x="469" 
d="M232 -9c-124 0 -197 82 -197 207c0 126 73 211 202 211c125 0 198 -84 198 -208c0 -126 -75 -210 -203 -210zM237 91c48 0 70 41 70 107c0 70 -24 111 -75 111c-48 0 -70 -41 -70 -108c0 -68 23 -110 75 -110z" />
    <glyph glyph-name="one.dnom" horiz-adv-x="312" 
d="M21 339l160 61h63v-400h-124v283l-99 -35v91z" />
    <glyph glyph-name="two.dnom" horiz-adv-x="373" 
d="M211 121l-29 -21h159v-100h-319v75l101 79c66 52 80 81 80 110c0 30 -24 45 -60 45c-31 0 -68 -12 -95 -33l-16 99c36 21 94 34 137 34c114 0 161 -51 161 -116c0 -71 -49 -121 -119 -172z" />
    <glyph glyph-name="three.dnom" horiz-adv-x="380" 
d="M246 211c62 -12 104 -44 104 -98c0 -74 -55 -122 -177 -122c-58 0 -111 11 -147 26l17 97c30 -16 77 -30 123 -30s62 18 62 40c0 35 -38 45 -83 45h-46v68h35c47 0 83 11 83 43c0 24 -24 37 -57 37s-71 -11 -108 -31l-19 92c39 19 89 31 148 31c103 0 152 -37 152 -96
c0 -53 -32 -85 -87 -102z" />
    <glyph glyph-name="four.dnom" horiz-adv-x="424" 
d="M335 400v-226h66v-94h-69v-80h-117v80h-195v82l171 238h144zM229 327l-111 -163h111v163z" />
    <glyph glyph-name="five.dnom" horiz-adv-x="379" 
d="M198 241c94 0 151 -33 151 -112c0 -92 -70 -138 -185 -138c-52 0 -99 8 -138 24l17 98c33 -16 71 -29 115 -29c43 0 67 18 67 49c0 36 -35 47 -73 47c-23 0 -49 -5 -71 -11l-41 15l18 216h268v-97h-171l-7 -65c16 2 35 3 50 3z" />
    <glyph glyph-name="six.dnom" horiz-adv-x="411" 
d="M258 236c77 0 129 -40 129 -109c0 -83 -65 -136 -171 -136c-118 0 -182 72 -182 167c0 143 96 233 280 257l33 -87c-101 -16 -177 -55 -196 -123c29 21 64 31 107 31zM220 76c29 0 53 18 53 48c0 36 -29 52 -60 52c-27 0 -50 -11 -63 -27c6 -45 30 -73 70 -73z" />
    <glyph glyph-name="seven.dnom" horiz-adv-x="353" 
d="M22 299v101h306v-79l-153 -321h-127l147 299h-173z" />
    <glyph glyph-name="eight.dnom" horiz-adv-x="424" 
d="M295 216c58 -20 95 -50 95 -100c0 -83 -66 -125 -177 -125c-114 0 -178 39 -178 106c0 50 39 82 88 94c-41 15 -82 45 -82 99c0 72 66 119 175 119c92 0 161 -36 161 -104c0 -50 -42 -77 -82 -89zM208 332c-30 0 -53 -15 -53 -39c0 -26 25 -38 78 -51c20 12 32 29 32 45
c0 24 -19 45 -57 45zM218 68c37 0 55 18 55 39c0 28 -23 44 -88 57c-21 -11 -33 -29 -33 -51c0 -24 22 -45 66 -45z" />
    <glyph glyph-name="nine.dnom" horiz-adv-x="411" 
d="M195 409c118 0 182 -72 182 -167c0 -143 -96 -233 -280 -257l-33 87c101 16 177 55 196 123c-29 -21 -64 -31 -107 -31c-77 0 -129 40 -129 109c0 83 65 136 171 136zM198 224c27 0 50 11 63 27c-6 45 -30 73 -70 73c-29 0 -53 -18 -53 -48c0 -36 29 -52 60 -52z" />
    <glyph glyph-name="zero.numr" horiz-adv-x="469" 
d="M232 281c-124 0 -197 82 -197 207c0 126 73 211 202 211c125 0 198 -84 198 -208c0 -126 -75 -210 -203 -210zM237 381c48 0 70 41 70 107c0 70 -24 111 -75 111c-48 0 -70 -41 -70 -108c0 -68 23 -110 75 -110z" />
    <glyph glyph-name="one.numr" horiz-adv-x="312" 
d="M21 629l160 61h63v-400h-124v283l-99 -35v91z" />
    <glyph glyph-name="two.numr" horiz-adv-x="373" 
d="M211 411l-29 -21h159v-100h-319v75l101 79c66 52 80 81 80 110c0 30 -24 45 -60 45c-31 0 -68 -12 -95 -33l-16 99c36 21 94 34 137 34c114 0 161 -51 161 -116c0 -71 -49 -121 -119 -172z" />
    <glyph glyph-name="three.numr" horiz-adv-x="380" 
d="M246 501c62 -12 104 -44 104 -98c0 -74 -55 -122 -177 -122c-58 0 -111 11 -147 26l17 97c30 -16 77 -30 123 -30s62 18 62 40c0 35 -38 45 -83 45h-46v68h35c47 0 83 11 83 43c0 24 -24 37 -57 37s-71 -11 -108 -31l-19 92c39 19 89 31 148 31c103 0 152 -37 152 -96
c0 -53 -32 -85 -87 -102z" />
    <glyph glyph-name="four.numr" horiz-adv-x="424" 
d="M335 690v-226h66v-94h-69v-80h-117v80h-195v82l171 238h144zM229 617l-111 -163h111v163z" />
    <glyph glyph-name="five.numr" horiz-adv-x="379" 
d="M198 531c94 0 151 -33 151 -112c0 -92 -70 -138 -185 -138c-52 0 -99 8 -138 24l17 98c33 -16 71 -29 115 -29c43 0 67 18 67 49c0 36 -35 47 -73 47c-23 0 -49 -5 -71 -11l-41 15l18 216h268v-97h-171l-7 -65c16 2 35 3 50 3z" />
    <glyph glyph-name="six.numr" horiz-adv-x="411" 
d="M258 526c77 0 129 -40 129 -109c0 -83 -65 -136 -171 -136c-118 0 -182 72 -182 167c0 143 96 233 280 257l33 -87c-101 -16 -177 -55 -196 -123c29 21 64 31 107 31zM220 366c29 0 53 18 53 48c0 36 -29 52 -60 52c-27 0 -50 -11 -63 -27c6 -45 30 -73 70 -73z" />
    <glyph glyph-name="seven.numr" horiz-adv-x="353" 
d="M22 589v101h306v-79l-153 -321h-127l147 299h-173z" />
    <glyph glyph-name="eight.numr" horiz-adv-x="424" 
d="M295 506c58 -20 95 -50 95 -100c0 -83 -66 -125 -177 -125c-114 0 -178 39 -178 106c0 50 39 82 88 94c-41 15 -82 45 -82 99c0 72 66 119 175 119c92 0 161 -36 161 -104c0 -50 -42 -77 -82 -89zM208 622c-30 0 -53 -15 -53 -39c0 -26 25 -38 78 -51c20 12 32 29 32 45
c0 24 -19 45 -57 45zM218 358c37 0 55 18 55 39c0 28 -23 44 -88 57c-21 -11 -33 -29 -33 -51c0 -24 22 -45 66 -45z" />
    <glyph glyph-name="nine.numr" horiz-adv-x="411" 
d="M195 699c118 0 182 -72 182 -167c0 -143 -96 -233 -280 -257l-33 87c101 16 177 55 196 123c-29 -21 -64 -31 -107 -31c-77 0 -129 40 -129 109c0 83 65 136 171 136zM198 514c27 0 50 11 63 27c-6 45 -30 73 -70 73c-29 0 -53 -18 -53 -48c0 -36 29 -52 60 -52z" />
    <glyph glyph-name="uni2070" unicode="&#x2070;" horiz-adv-x="469" 
d="M232 326c-124 0 -197 82 -197 207c0 126 73 211 202 211c125 0 198 -84 198 -208c0 -126 -75 -210 -203 -210zM237 426c48 0 70 41 70 107c0 70 -24 111 -75 111c-48 0 -70 -41 -70 -108c0 -68 23 -110 75 -110z" />
    <glyph glyph-name="uni00B9" unicode="&#xb9;" horiz-adv-x="312" 
d="M21 674l160 61h63v-400h-124v283l-99 -35v91z" />
    <glyph glyph-name="uni00B2" unicode="&#xb2;" horiz-adv-x="373" 
d="M211 456l-29 -21h159v-100h-319v75l101 79c66 52 80 81 80 110c0 30 -24 45 -60 45c-31 0 -68 -12 -95 -33l-16 99c36 21 94 34 137 34c114 0 161 -51 161 -116c0 -71 -49 -121 -119 -172z" />
    <glyph glyph-name="uni00B3" unicode="&#xb3;" horiz-adv-x="380" 
d="M246 546c62 -12 104 -44 104 -98c0 -74 -55 -122 -177 -122c-58 0 -111 11 -147 26l17 97c30 -16 77 -30 123 -30s62 18 62 40c0 35 -38 45 -83 45h-46v68h35c47 0 83 11 83 43c0 24 -24 37 -57 37s-71 -11 -108 -31l-19 92c39 19 89 31 148 31c103 0 152 -37 152 -96
c0 -53 -32 -85 -87 -102z" />
    <glyph glyph-name="uni2074" unicode="&#x2074;" horiz-adv-x="424" 
d="M335 735v-226h66v-94h-69v-80h-117v80h-195v82l171 238h144zM229 662l-111 -163h111v163z" />
    <glyph glyph-name="uni2075" unicode="&#x2075;" horiz-adv-x="379" 
d="M198 576c94 0 151 -33 151 -112c0 -92 -70 -138 -185 -138c-52 0 -99 8 -138 24l17 98c33 -16 71 -29 115 -29c43 0 67 18 67 49c0 36 -35 47 -73 47c-23 0 -49 -5 -71 -11l-41 15l18 216h268v-97h-171l-7 -65c16 2 35 3 50 3z" />
    <glyph glyph-name="uni2076" unicode="&#x2076;" horiz-adv-x="411" 
d="M258 571c77 0 129 -40 129 -109c0 -83 -65 -136 -171 -136c-118 0 -182 72 -182 167c0 143 96 233 280 257l33 -87c-101 -16 -177 -55 -196 -123c29 21 64 31 107 31zM220 411c29 0 53 18 53 48c0 36 -29 52 -60 52c-27 0 -50 -11 -63 -27c6 -45 30 -73 70 -73z" />
    <glyph glyph-name="uni2077" unicode="&#x2077;" horiz-adv-x="353" 
d="M22 634v101h306v-79l-153 -321h-127l147 299h-173z" />
    <glyph glyph-name="uni2078" unicode="&#x2078;" horiz-adv-x="424" 
d="M295 551c58 -20 95 -50 95 -100c0 -83 -66 -125 -177 -125c-114 0 -178 39 -178 106c0 50 39 82 88 94c-41 15 -82 45 -82 99c0 72 66 119 175 119c92 0 161 -36 161 -104c0 -50 -42 -77 -82 -89zM208 667c-30 0 -53 -15 -53 -39c0 -26 25 -38 78 -51c20 12 32 29 32 45
c0 24 -19 45 -57 45zM218 403c37 0 55 18 55 39c0 28 -23 44 -88 57c-21 -11 -33 -29 -33 -51c0 -24 22 -45 66 -45z" />
    <glyph glyph-name="uni2079" unicode="&#x2079;" horiz-adv-x="411" 
d="M195 744c118 0 182 -72 182 -167c0 -143 -96 -233 -280 -257l-33 87c101 16 177 55 196 123c-29 -21 -64 -31 -107 -31c-77 0 -129 40 -129 109c0 83 65 136 171 136zM198 559c27 0 50 11 63 27c-6 45 -30 73 -70 73c-29 0 -53 -18 -53 -48c0 -36 29 -52 60 -52z" />
    <glyph glyph-name="fraction" unicode="&#x2044;" horiz-adv-x="213" 
d="M34 -100h-117l236 790h117z" />
    <glyph glyph-name="onehalf" unicode="&#xbd;" horiz-adv-x="898" 
d="M244 690v-400h-124v283l-99 -35v91l160 61h63zM229 -100l236 790h117l-236 -790h-117zM736 121l-29 -21h159v-100h-319v75l101 79c66 52 80 81 80 110c0 30 -24 45 -60 45c-31 0 -68 -12 -95 -33l-16 99c36 21 94 34 137 34c114 0 161 -51 161 -116
c0 -71 -49 -121 -119 -172z" />
    <glyph glyph-name="onequarter" unicode="&#xbc;" horiz-adv-x="916" 
d="M244 690v-400h-124v283l-99 -35v91l160 61h63zM229 -100l236 790h117l-236 -790h-117zM828 400v-226h66v-94h-69v-80h-117v80h-195v82l171 238h144zM722 327l-111 -163h111v163z" />
    <glyph glyph-name="threequarters" unicode="&#xbe;" horiz-adv-x="984" 
d="M350 403c0 -74 -55 -122 -177 -122c-58 0 -111 11 -147 26l17 97c30 -16 77 -30 123 -30s62 18 62 40c0 35 -38 45 -83 45h-46v68h35c47 0 83 11 83 43c0 24 -24 37 -57 37s-71 -11 -108 -31l-19 92c39 19 89 31 148 31c103 0 152 -37 152 -96c0 -53 -32 -85 -87 -102
c62 -12 104 -44 104 -98zM297 -100l236 790h117l-236 -790h-117zM896 400v-226h66v-94h-69v-80h-117v80h-195v82l171 238h144zM790 327l-111 -163h111v163z" />
    <glyph glyph-name="period" unicode="." horiz-adv-x="294" 
d="M148 -14c-63 0 -111 42 -111 105c0 60 43 105 111 105c63 0 110 -41 110 -105c0 -60 -44 -105 -110 -105z" />
    <glyph glyph-name="comma" unicode="," horiz-adv-x="294" 
d="M84 -166l-45 54c40 35 80 75 80 124c0 41 -24 67 -89 67c0 56 37 117 113 117c80 0 115 -54 115 -116c0 -111 -96 -199 -174 -246z" />
    <glyph glyph-name="colon" unicode=":" horiz-adv-x="294" 
d="M148 309c-63 0 -111 42 -111 105c0 60 43 106 111 106c63 0 110 -42 110 -106c0 -60 -44 -105 -110 -105zM148 -14c-63 0 -111 42 -111 105c0 60 43 105 111 105c63 0 110 -41 110 -105c0 -60 -44 -105 -110 -105z" />
    <glyph glyph-name="semicolon" unicode=";" horiz-adv-x="295" 
d="M147 309c-63 0 -111 42 -111 105c0 60 43 106 111 106c63 0 110 -42 110 -106c0 -60 -44 -105 -110 -105zM84 -166l-45 54c40 35 80 75 80 124c0 41 -24 67 -89 67c0 56 37 117 113 117c80 0 115 -54 115 -116c0 -111 -96 -199 -174 -246z" />
    <glyph glyph-name="ellipsis" unicode="&#x2026;" horiz-adv-x="822" 
d="M138 -13c-59 0 -104 39 -104 98c0 56 41 98 104 98c59 0 102 -39 102 -98c0 -56 -41 -98 -102 -98zM412 -13c-59 0 -104 39 -104 98c0 56 41 98 104 98c59 0 102 -39 102 -98c0 -56 -41 -98 -102 -98zM686 -13c-59 0 -104 39 -104 98c0 56 41 98 104 98
c59 0 102 -39 102 -98c0 -56 -41 -98 -102 -98z" />
    <glyph glyph-name="exclam" unicode="!" horiz-adv-x="324" 
d="M226 243h-126l-27 492l179 14zM163 -13c-58 0 -103 39 -103 96c0 56 41 97 103 97c58 0 101 -38 101 -97c0 -55 -41 -96 -101 -96z" />
    <glyph glyph-name="exclamdown" unicode="&#xa1;" horiz-adv-x="324" 
d="M163 332c-58 0 -103 39 -103 96c0 56 41 97 103 97c58 0 101 -38 101 -97c0 -55 -41 -96 -101 -96zM252 -199l-179 -14l26 481h126z" />
    <glyph glyph-name="question" unicode="?" horiz-adv-x="474" 
d="M201 254l-120 -13c-8 19 -13 45 -13 72c0 122 202 144 202 239c0 39 -34 61 -84 61c-46 0 -109 -21 -144 -45l-21 139c51 27 124 41 198 41c116 0 224 -48 224 -165c0 -191 -242 -233 -243 -300c-1 -9 0 -20 1 -29zM143 -13c-58 0 -103 39 -103 96c0 56 41 97 103 97
c58 0 100 -38 100 -97c0 -55 -40 -96 -100 -96z" />
    <glyph glyph-name="questiondown" unicode="&#xbf;" horiz-adv-x="474" 
d="M330 332c-58 0 -102 39 -102 96c0 56 40 97 102 97c58 0 101 -38 101 -97c0 -55 -41 -96 -101 -96zM255 -215c-117 0 -224 48 -224 165c0 179 242 216 243 281c0 9 0 19 -1 26l120 12c8 -17 13 -39 13 -64c0 -124 -202 -142 -202 -224c0 -39 33 -61 84 -61
c46 0 109 21 144 45l21 -139c-51 -27 -125 -41 -198 -41z" />
    <glyph glyph-name="periodcentered" unicode="&#xb7;" horiz-adv-x="294" 
d="M148 151c-63 0 -111 43 -111 105c0 60 43 106 111 106c63 0 110 -42 110 -106c0 -60 -44 -105 -110 -105z" />
    <glyph glyph-name="bullet" unicode="&#x2022;" horiz-adv-x="419" 
d="M211 98c-88 0 -156 66 -156 155c0 88 68 155 156 155s153 -67 153 -155c0 -89 -65 -155 -153 -155z" />
    <glyph glyph-name="asterisk" unicode="*" horiz-adv-x="519" 
d="M260 406l-102 -130l-83 61l89 137l-155 58l32 100l160 -50l7 171h102l7 -171l161 50l32 -99l-156 -59l93 -137l-85 -61z" />
    <glyph glyph-name="numbersign" unicode="#" horiz-adv-x="767" 
d="M246 0h-121l34 108h-117l8 117h136l37 106h-142l9 117h159l32 104h119l-31 -104h114l32 104h119l-32 -104h123l-8 -117h-140l-38 -106h147l-9 -117h-165l-33 -108h-118l33 108h-115zM342 340l-42 -124h118l41 124h-117z" />
    <glyph glyph-name="slash" unicode="/" horiz-adv-x="442" 
d="M165 -69h-152l269 818h152z" />
    <glyph glyph-name="backslash" unicode="\" horiz-adv-x="443" 
d="M431 -69h-153l-268 818h152z" />
    <glyph glyph-name="exclam.case" horiz-adv-x="324" 
d="M100 243l-27 447l179 14l-26 -461h-126zM163 -13c-58 0 -103 39 -103 96c0 56 41 97 103 97c58 0 101 -38 101 -97c0 -55 -41 -96 -101 -96z" />
    <glyph glyph-name="exclamdown.case" horiz-adv-x="324" 
d="M161 703c58 0 103 -39 103 -96c0 -56 -41 -97 -103 -97c-58 0 -101 38 -101 97c0 55 41 96 101 96zM224 447l27 -447l-179 -14l26 461h126z" />
    <glyph glyph-name="question.case" horiz-adv-x="474" 
d="M201 253l-120 -12c-8 17 -13 39 -13 64c0 123 202 121 202 206c0 35 -34 58 -84 58c-46 0 -109 -22 -144 -45l-21 139c51 27 124 41 198 41c116 0 224 -49 224 -165c0 -178 -242 -193 -243 -258c-1 -8 0 -20 1 -28zM141 -13c-58 0 -102 39 -102 96c0 56 40 97 102 97
c58 0 101 -38 101 -97c0 -55 -41 -96 -101 -96z" />
    <glyph glyph-name="questiondown.case" horiz-adv-x="474" 
d="M333 703c58 0 102 -39 102 -96c0 -56 -40 -97 -102 -97c-58 0 -101 38 -101 97c0 55 41 96 101 96zM273 437l120 12c8 -17 13 -39 13 -64c0 -123 -202 -121 -202 -206c0 -35 34 -58 84 -58c46 0 109 22 144 45l21 -139c-51 -27 -124 -41 -198 -41
c-116 0 -224 49 -224 165c0 178 242 193 243 258c1 8 0 20 -1 28z" />
    <glyph glyph-name="periodcentered.case" horiz-adv-x="294" 
d="M148 198c-63 0 -111 42 -111 105c0 60 43 105 111 105c63 0 110 -41 110 -105c0 -60 -44 -105 -110 -105z" />
    <glyph glyph-name="bullet.case" horiz-adv-x="419" 
d="M211 145c-88 0 -156 66 -156 155c0 88 68 155 156 155s153 -67 153 -155c0 -89 -65 -155 -153 -155z" />
    <glyph glyph-name="numbersign.lf" horiz-adv-x="808" 
d="M255 0h-121l36 140h-128l8 128h147l39 156h-151l9 128h168l36 138h121l-35 -138h124l36 138h121l-36 -138h137l-9 -128h-154l-39 -156h159l-9 -128h-177l-36 -140h-121l35 140h-124zM359 431l-42 -168h125l42 168h-125z" />
    <glyph glyph-name="periodcentered.loclCAT" horiz-adv-x="198" 
d="M100 253c-58 0 -100 38 -100 95c0 54 39 95 100 95c56 0 98 -39 98 -95c0 -54 -40 -95 -98 -95z" />
    <glyph glyph-name="parenleft" unicode="(" horiz-adv-x="385" 
d="M372 -137l-120 -66c-130 136 -212 276 -212 487c0 213 85 360 212 496l120 -66c-107 -129 -162 -248 -162 -422s56 -299 162 -429z" />
    <glyph glyph-name="parenright" unicode=")" horiz-adv-x="385" 
d="M13 714l120 65c130 -135 212 -275 212 -487c0 -213 -85 -359 -212 -496l-120 67c107 129 162 248 162 422c0 173 -56 298 -162 429z" />
    <glyph glyph-name="braceleft" unicode="{" horiz-adv-x="408" 
d="M277 5c0 -61 36 -79 106 -86l-17 -123c-178 5 -254 42 -254 161c0 76 39 153 39 199c0 56 -55 68 -145 74v115c90 6 145 20 145 73c0 48 -39 117 -39 193c0 121 85 160 254 169l17 -123c-79 -6 -108 -24 -108 -77c0 -59 26 -125 26 -176c0 -66 -50 -99 -125 -114
c87 -11 125 -55 125 -115c0 -68 -24 -119 -24 -170z" />
    <glyph glyph-name="braceright" unicode="}" horiz-adv-x="408" 
d="M402 346v-115c-90 -6 -144 -20 -144 -73c0 -47 39 -117 39 -193c0 -120 -86 -160 -254 -169l-18 123c79 6 109 24 109 77c0 60 -27 125 -27 177c0 65 51 99 127 114c-89 9 -127 54 -127 114c0 68 24 119 24 170c0 62 -36 79 -106 86l18 123c178 -5 254 -41 254 -161
c0 -76 -40 -152 -40 -199c0 -56 55 -67 145 -74z" />
    <glyph glyph-name="bracketleft" unicode="[" horiz-adv-x="390" 
d="M358 -204h-283v984h283l7 -127h-133v-729h133z" />
    <glyph glyph-name="bracketright" unicode="]" horiz-adv-x="390" 
d="M32 780h283v-984h-283l-7 128h133v729h-133z" />
    <glyph glyph-name="parenleft.case" horiz-adv-x="385" 
d="M372 -81l-120 -65c-130 135 -212 275 -212 487c0 213 85 359 212 496l120 -67c-107 -129 -162 -248 -162 -422c0 -173 56 -298 162 -429z" />
    <glyph glyph-name="parenright.case" horiz-adv-x="385" 
d="M13 770l120 66c130 -136 212 -275 212 -487c0 -213 -85 -360 -212 -496l-120 66c107 129 162 248 162 422s-56 299 -162 429z" />
    <glyph glyph-name="braceleft.case" horiz-adv-x="408" 
d="M277 62c0 -62 36 -79 106 -86l-17 -123c-178 5 -254 41 -254 161c0 76 39 152 39 198c0 57 -55 68 -145 75v115c90 6 145 19 145 73c0 47 -39 116 -39 193c0 120 85 160 254 169l17 -124c-79 -5 -108 -24 -108 -76c0 -60 26 -125 26 -177c0 -65 -50 -99 -126 -114
c88 -10 126 -54 126 -115c0 -68 -24 -118 -24 -169z" />
    <glyph glyph-name="braceright.case" horiz-adv-x="408" 
d="M402 402v-115c-90 -6 -144 -19 -144 -73c0 -47 39 -116 39 -193c0 -120 -86 -160 -254 -168l-18 123c79 6 109 24 109 77c0 59 -27 124 -27 176c0 65 51 99 126 114c-88 10 -126 55 -126 115c0 68 24 119 24 170c0 61 -36 79 -106 85l18 124c178 -6 254 -42 254 -162
c0 -75 -40 -152 -40 -198c0 -56 55 -68 145 -75z" />
    <glyph glyph-name="bracketleft.case" horiz-adv-x="390" 
d="M358 -147h-283v984h283l7 -128h-133v-729h133z" />
    <glyph glyph-name="bracketright.case" horiz-adv-x="390" 
d="M32 837h283v-984h-283l-7 127h133v729h-133z" />
    <glyph glyph-name="hyphen" unicode="-" horiz-adv-x="420" 
d="M378 187h-336v137h336v-137z" />
    <glyph glyph-name="uni00AD" unicode="&#xad;" horiz-adv-x="420" 
d="M378 187h-336v137h336v-137z" />
    <glyph glyph-name="endash" unicode="&#x2013;" horiz-adv-x="625" 
d="M583 187h-541v137h541v-137z" />
    <glyph glyph-name="emdash" unicode="&#x2014;" horiz-adv-x="944" 
d="M901 187h-859v137h859v-137z" />
    <glyph glyph-name="figuredash" unicode="&#x2012;" horiz-adv-x="674" 
d="M632 187h-590v137h590v-137z" />
    <glyph glyph-name="uni2015" unicode="&#x2015;" horiz-adv-x="944" 
d="M901 187h-859v137h859v-137z" />
    <glyph glyph-name="uni2010" unicode="&#x2010;" horiz-adv-x="420" 
d="M378 187h-336v137h336v-137z" />
    <glyph glyph-name="uni2011" unicode="&#x2011;" horiz-adv-x="420" 
d="M378 187h-336v137h336v-137z" />
    <glyph glyph-name="underscore" unicode="_" horiz-adv-x="497" 
d="M507 -187h-517v137h517v-137z" />
    <glyph glyph-name="hyphen.case" horiz-adv-x="420" 
d="M378 231h-336v137h336v-137z" />
    <glyph glyph-name="endash.case" horiz-adv-x="625" 
d="M583 231h-541v137h541v-137z" />
    <glyph glyph-name="emdash.case" horiz-adv-x="944" 
d="M901 231h-859v137h859v-137z" />
    <glyph glyph-name="quotesinglbase" unicode="&#x201a;" horiz-adv-x="294" 
d="M84 -166l-45 54c40 35 80 75 80 124c0 41 -24 67 -89 67c0 56 37 117 113 117c80 0 115 -54 115 -116c0 -111 -96 -199 -174 -246z" />
    <glyph glyph-name="quotedblbase" unicode="&#x201e;" horiz-adv-x="529" 
d="M81 -166l-43 54c38 35 76 75 76 124c0 41 -22 67 -85 67c0 56 36 117 108 117c76 0 110 -54 110 -116c0 -111 -91 -199 -166 -246zM329 -166l-43 54c38 35 76 75 76 124c0 41 -22 67 -85 67c0 56 36 117 108 117c76 0 110 -54 110 -116c0 -111 -91 -199 -166 -246z" />
    <glyph glyph-name="quotedblleft" unicode="&#x201c;" horiz-adv-x="529" 
d="M200 750l43 -54c-38 -35 -76 -75 -76 -124c0 -41 23 -67 85 -67c0 -56 -36 -117 -108 -117c-76 0 -110 55 -110 116c0 111 91 199 166 246zM448 750l43 -54c-38 -35 -76 -75 -76 -124c0 -41 23 -67 85 -67c0 -56 -35 -117 -108 -117c-76 0 -110 55 -110 116
c0 111 91 199 166 246z" />
    <glyph glyph-name="quotedblright" unicode="&#x201d;" horiz-adv-x="529" 
d="M81 390l-43 55c38 34 76 75 76 124c0 40 -22 67 -85 67c0 56 36 117 108 117c76 0 110 -55 110 -117c0 -110 -91 -199 -166 -246zM329 390l-43 55c38 34 76 75 76 124c0 40 -22 67 -85 67c0 56 36 117 108 117c76 0 110 -55 110 -117c0 -110 -91 -199 -166 -246z" />
    <glyph glyph-name="quoteleft" unicode="&#x2018;" horiz-adv-x="294" 
d="M210 750l45 -54c-40 -35 -80 -75 -80 -124c0 -41 24 -67 89 -67c0 -56 -37 -117 -113 -117c-80 0 -115 55 -115 116c0 111 96 199 174 246z" />
    <glyph glyph-name="quoteright" unicode="&#x2019;" horiz-adv-x="294" 
d="M84 390l-45 55c40 34 80 75 80 124c0 40 -24 67 -89 67c0 56 37 117 113 117c80 0 115 -55 115 -117c0 -110 -96 -199 -174 -246z" />
    <glyph glyph-name="guillemotleft" unicode="&#xab;" horiz-adv-x="681" 
d="M227 530l114 -83l-149 -180l151 -171l-116 -95l-193 246v35zM627 447l-150 -181l151 -170l-116 -95l-193 246v35l193 248z" />
    <glyph glyph-name="guillemotright" unicode="&#xbb;" horiz-adv-x="681" 
d="M169 530l193 -246v-35l-193 -248l-115 83l150 180l-151 171zM338 435l116 95l193 -246v-35l-193 -248l-114 83l149 180z" />
    <glyph glyph-name="guilsinglleft" unicode="&#x2039;" horiz-adv-x="413" 
d="M358 447l-158 -180l159 -171l-122 -95l-203 246v35l203 248z" />
    <glyph glyph-name="guilsinglright" unicode="&#x203a;" horiz-adv-x="413" 
d="M53 435l123 95l203 -246v-35l-203 -248l-121 83l158 180z" />
    <glyph glyph-name="quotedbl" unicode="&#x22;" horiz-adv-x="499" 
d="M230 680l-102 -299l-79 11l13 355l171 -8zM462 680l-102 -299l-79 11l13 355l171 -8z" />
    <glyph glyph-name="quotesingle" unicode="'" horiz-adv-x="267" 
d="M230 680l-102 -299l-79 11l13 355l171 -8z" />
    <glyph glyph-name="guillemotleft.case" horiz-adv-x="681" 
d="M227 598l114 -83l-149 -180l151 -171l-116 -95l-193 246v35zM627 515l-150 -181l151 -170l-116 -95l-193 246v35l193 248z" />
    <glyph glyph-name="guillemotright.case" horiz-adv-x="681" 
d="M169 598l193 -246v-35l-193 -248l-115 83l150 180l-151 171zM338 503l116 95l193 -246v-35l-193 -248l-114 83l149 180z" />
    <glyph glyph-name="guilsinglleft.case" horiz-adv-x="413" 
d="M358 515l-158 -180l159 -171l-122 -95l-203 246v35l203 248z" />
    <glyph glyph-name="guilsinglright.case" horiz-adv-x="413" 
d="M53 503l123 95l203 -246v-35l-203 -248l-121 83l158 180z" />
    <glyph glyph-name="uni2007" unicode="&#x2007;" horiz-adv-x="674" 
 />
    <glyph glyph-name="uni200A" unicode="&#x200a;" horiz-adv-x="56" 
 />
    <glyph glyph-name="uni2008" unicode="&#x2008;" horiz-adv-x="294" 
 />
    <glyph glyph-name="uni00A0" unicode="&#xa0;" horiz-adv-x="224" 
 />
    <glyph glyph-name="uni2009" unicode="&#x2009;" horiz-adv-x="128" 
 />
    <glyph glyph-name="uni200B" unicode="&#x200b;" 
 />
    <glyph glyph-name="cent" unicode="&#xa2;" horiz-adv-x="503" 
d="M446 180l27 -138c-38 -25 -92 -35 -136 -38v-126h-101v131c-132 24 -201 115 -201 246c0 136 69 229 201 252v130h101v-127c41 -4 99 -14 136 -34l-26 -137c-32 23 -77 39 -121 39c-71 0 -119 -42 -119 -119c0 -78 53 -123 126 -123c47 0 85 19 113 44z" />
    <glyph glyph-name="currency" unicode="&#xa4;" horiz-adv-x="687" 
d="M563 157l87 -88l-80 -79l-95 97c-37 -16 -82 -25 -134 -25c-49 0 -92 8 -129 25l-94 -96l-79 79l85 87c-27 38 -42 87 -42 145c0 59 15 108 43 147l-88 90l79 79l96 -98c39 18 84 27 135 27c49 0 93 -9 130 -25l93 95l79 -79l-85 -87c26 -38 41 -87 41 -146
s-15 -109 -42 -148zM237 306c0 -75 43 -121 109 -121c67 0 104 42 104 118c0 75 -40 121 -109 121c-66 0 -104 -42 -104 -118z" />
    <glyph glyph-name="dollar" unicode="$" horiz-adv-x="544" 
d="M505 170c0 -105 -65 -167 -184 -181v-111h-101v110c-60 4 -128 16 -173 40l19 130c64 -35 152 -58 203 -58c44 0 68 20 68 52c0 31 -33 47 -116 67c-138 33 -181 79 -181 164c0 107 84 156 186 168v116h101v-116c62 -6 119 -21 163 -43l-21 -128c-62 38 -139 59 -193 59
c-45 0 -68 -21 -68 -48c0 -29 19 -41 125 -67s172 -62 172 -154z" />
    <glyph glyph-name="Euro" unicode="&#x20ac;" horiz-adv-x="597" 
d="M401 113c44 0 94 16 132 45l35 -134c-58 -30 -111 -37 -178 -37c-148 0 -253 76 -285 198h-75v58h66c-1 8 -1 15 -1 23c0 10 0 20 1 30h-66v58h76c33 123 136 199 283 199c65 0 127 -10 179 -37l-35 -132c-41 26 -94 42 -142 42c-63 0 -101 -26 -118 -72h173v-58h-185
c-1 -8 -1 -16 -1 -24c0 -10 0 -20 1 -29h154v-58h-141c20 -47 60 -72 127 -72z" />
    <glyph glyph-name="florin" unicode="&#x192;" horiz-adv-x="593" 
d="M450 415c-44 0 -71 -22 -76 -75l-6 -61h153v-101h-162l-13 -140c-13 -140 -62 -202 -186 -202c-58 0 -110 12 -143 28l29 133c30 -15 53 -21 77 -21c35 0 54 19 59 72l12 130h-132v83l142 18l8 87c10 120 85 188 211 188c62 0 130 -12 161 -29l-33 -132
c-34 14 -71 22 -101 22z" />
    <glyph glyph-name="uni20BA" unicode="&#x20ba;" horiz-adv-x="629" 
d="M436 286h157c0 -206 -139 -286 -320 -286h-143v210l-78 -27l-18 55l96 33v56l-82 -28l-18 56l100 34v150h158v-96l112 38l18 -55l-130 -45v-56l115 39l19 -55l-134 -46v-137h14c86 0 134 69 134 160z" />
    <glyph glyph-name="uni20BD" unicode="&#x20bd;" horiz-adv-x="610" 
d="M344 187h-68v-54h183v-58h-183v-75h-157v75h-89v58h89v53h-89v58h89v295h239c143 0 219 -63 219 -169c0 -123 -70 -183 -233 -183zM331 419h-55v-131h55c64 0 89 20 89 64c0 42 -22 67 -89 67z" />
    <glyph glyph-name="sterling" unicode="&#xa3;" horiz-adv-x="570" 
d="M523 146l15 -140c-16 -11 -54 -20 -98 -20c-63 0 -145 14 -192 80c-24 -48 -66 -72 -176 -79l-27 109c66 5 97 23 97 62c0 17 -5 38 -12 62h-100v87h76c-5 21 -8 42 -8 63c0 123 87 183 237 183c56 0 126 -7 159 -17l-15 -129c-45 10 -83 15 -119 15
c-65 0 -111 -21 -111 -88c0 -9 1 -18 2 -27h186v-87h-164c6 -21 10 -42 10 -61c0 -6 0 -11 -1 -16c35 -16 78 -27 123 -27s88 10 118 30z" />
    <glyph glyph-name="yen" unicode="&#xa5;" horiz-adv-x="582" 
d="M394 539h175l-170 -275h114v-58h-143v-52h143v-58h-143v-96h-158v96h-144v58h144v52h-144v58h114l-170 275h179l100 -212z" />
    <glyph glyph-name="dollar.lf" horiz-adv-x="584" 
d="M545 218c0 -120 -62 -197 -207 -212v-128h-101v127c-73 6 -148 25 -195 53l24 143c70 -42 153 -68 225 -68c58 0 87 21 87 66c0 39 -47 62 -136 86c-119 32 -203 72 -203 190c0 131 89 196 205 207v131h102v-132c72 -7 135 -27 182 -56l-26 -139c-68 45 -160 66 -219 66
c-40 0 -76 -14 -76 -54c0 -42 41 -61 139 -89c144 -40 199 -89 199 -191z" />
    <glyph glyph-name="Euro.lf" horiz-adv-x="688" 
d="M469 122c62 0 112 24 147 56l37 -145c-66 -39 -136 -48 -204 -48c-170 0 -286 98 -322 251h-97v79h86c-1 9 -1 18 -1 27c0 12 0 24 1 36h-86v79h98c38 150 153 246 321 246c73 0 146 -14 204 -47l-37 -144c-34 27 -85 55 -153 55c-92 0 -147 -37 -171 -110h233v-79h-246
c-1 -9 -1 -18 -1 -28c0 -12 0 -24 1 -35h228v-79h-213c26 -74 83 -114 175 -114z" />
    <glyph glyph-name="florin.lf" horiz-adv-x="577" 
d="M450 564c-44 0 -71 -22 -76 -75l-6 -61h153v-101h-162l-13 -140c-13 -140 -62 -202 -186 -202c-58 0 -110 12 -143 28l29 134c30 -16 53 -22 77 -22c35 0 54 19 59 72l12 130h-132v83l142 18l8 87c10 120 85 188 211 188c62 0 130 -12 161 -28l-33 -133
c-34 14 -71 22 -101 22z" />
    <glyph glyph-name="uni20BA.lf" horiz-adv-x="702" 
d="M492 351l169 -11c0 -227 -137 -340 -357 -340h-150v250l-96 -35l-24 75l120 44v68l-100 -37l-24 75l124 46v204h163v-144l127 47l24 -75l-151 -56v-67l131 48l24 -75l-155 -57v-175h17c102 0 158 89 158 215z" />
    <glyph glyph-name="uni20BD.lf" horiz-adv-x="667" 
d="M355 246h-59v-61h214v-79h-214v-106h-162v106h-104v79h104v63h-104v79h104v363h245c171 0 258 -79 258 -213c0 -154 -86 -231 -282 -231zM352 556h-56v-199h56c83 0 121 33 121 101c0 63 -33 98 -121 98z" />
    <glyph glyph-name="sterling.lf" horiz-adv-x="610" 
d="M561 169l17 -158c-17 -13 -59 -26 -109 -26c-72 0 -151 21 -203 95c-28 -56 -74 -81 -188 -95l-29 123c71 15 104 33 104 80c0 26 -8 61 -18 100h-105v100h81c-5 27 -8 53 -8 78c0 168 120 237 270 237c61 0 129 -8 166 -21l-17 -143c-30 11 -67 18 -112 18
c-58 0 -138 -24 -138 -131c0 -12 1 -25 3 -38h201v-100h-181c7 -32 13 -63 13 -90c0 -9 -1 -19 -3 -28c37 -24 83 -39 131 -39c47 0 91 13 125 38z" />
    <glyph glyph-name="yen.lf" horiz-adv-x="641" 
d="M454 690h176l-192 -335h138v-80h-173v-63h173v-79h-173v-133h-164v133h-172v79h172v63h-172v80h138l-193 335h179l131 -279z" />
    <glyph glyph-name="uni2219" unicode="&#x2219;" horiz-adv-x="294" 
d="M148 151c-63 0 -111 43 -111 105c0 60 43 106 111 106c63 0 110 -42 110 -106c0 -60 -44 -105 -110 -105z" />
    <glyph glyph-name="uni2215" unicode="&#x2215;" horiz-adv-x="333" 
d="M107 -130h-117l236 790h117z" />
    <glyph glyph-name="plus" unicode="+" horiz-adv-x="555" 
d="M350 321h163v-130h-163v-175h-145v175h-163v130h163v175h145v-175z" />
    <glyph glyph-name="minus" unicode="&#x2212;" horiz-adv-x="520" 
d="M478 191h-436v130h436v-130z" />
    <glyph glyph-name="multiply" unicode="&#xd7;" horiz-adv-x="549" 
d="M416 494l91 -88l-145 -150l145 -150l-91 -88l-141 147l-142 -147l-91 88l145 150l-145 150l91 88l142 -147z" />
    <glyph glyph-name="divide" unicode="&#xf7;" horiz-adv-x="540" 
d="M271 367c-46 0 -82 31 -82 77c0 44 32 77 82 77c46 0 80 -30 80 -77c0 -44 -32 -77 -80 -77zM497 195h-455v122h455v-122zM271 -10c-46 0 -82 32 -82 77s32 78 82 78c46 0 80 -30 80 -78c0 -44 -32 -77 -80 -77z" />
    <glyph glyph-name="equal" unicode="=" horiz-adv-x="521" 
d="M479 305h-437v129h437v-129zM479 78h-437v129h437v-129z" />
    <glyph glyph-name="notequal" unicode="&#x2260;" horiz-adv-x="521" 
d="M479 434v-129h-151l-25 -98h176v-129h-210l-26 -101h-112l26 101h-115v129h149l26 98h-175v129h208l26 98h111l-25 -98h117z" />
    <glyph glyph-name="greater" unicode="&#x3e;" horiz-adv-x="509" 
d="M42 356v137l425 -177v-120l-425 -178v136l268 101z" />
    <glyph glyph-name="less" unicode="&#x3c;" horiz-adv-x="509" 
d="M42 315l425 178v-135l-269 -101l269 -102v-137l-425 177v120z" />
    <glyph glyph-name="greaterequal" unicode="&#x2265;" horiz-adv-x="509" 
d="M42 461v131l425 -167v-113l-425 -168v131l268 92zM467 0h-425v122h425v-122z" />
    <glyph glyph-name="lessequal" unicode="&#x2264;" horiz-adv-x="509" 
d="M42 424l425 168v-131l-269 -93l269 -94v-130l-425 167v113zM467 0h-425v122h425v-122z" />
    <glyph glyph-name="plusminus" unicode="&#xb1;" horiz-adv-x="555" 
d="M346 584v-149h167v-121h-167v-157h-137v157h-167v121h167v149h137zM513 0h-471v122h471v-122z" />
    <glyph glyph-name="approxequal" unicode="&#x2248;" horiz-adv-x="537" 
d="M368 284c-83 0 -143 47 -203 47c-32 0 -47 -13 -54 -31l-69 15c3 88 56 142 128 142c80 0 134 -47 205 -47c29 0 44 13 51 29l68 -14c-5 -94 -56 -141 -126 -141zM368 56c-83 0 -143 47 -203 47c-32 0 -47 -14 -54 -31l-69 15c3 88 56 141 128 141c80 0 134 -47 205 -47
c29 0 44 14 51 30l68 -15c-5 -93 -56 -140 -126 -140z" />
    <glyph glyph-name="logicalnot" unicode="&#xac;" horiz-adv-x="508" 
d="M460 98h-146v166h-272v130h418v-296z" />
    <glyph glyph-name="asciitilde" unicode="~" horiz-adv-x="526" 
d="M360 158c-86 0 -143 64 -198 64c-29 0 -49 -18 -57 -53l-68 15c2 105 54 171 129 171c86 0 138 -63 204 -63c31 0 44 17 51 51l68 -14c-6 -111 -49 -171 -129 -171z" />
    <glyph glyph-name="asciicircum" unicode="^" horiz-adv-x="596" 
d="M359 690l192 -359h-157l-100 220l-96 -220h-153l187 359h127z" />
    <glyph glyph-name="emptyset" unicode="&#x2205;" horiz-adv-x="642" 
d="M591 546l-69 -95c49 -47 78 -114 78 -194c0 -152 -111 -269 -279 -269c-45 0 -86 8 -122 24l-73 -99l-75 52l71 96c-51 48 -80 116 -80 194c0 157 113 269 278 269c46 0 88 -8 125 -24l69 94zM319 403c-80 0 -136 -59 -136 -146c0 -37 10 -69 29 -94l167 227
c-18 9 -38 13 -60 13zM323 109c81 0 136 60 136 146c0 36 -10 67 -27 91l-166 -226c17 -7 36 -11 57 -11z" />
    <glyph glyph-name="infinity" unicode="&#x221e;" horiz-adv-x="922" 
d="M261 32c-143 0 -219 105 -219 223c0 117 71 227 215 227c102 0 160 -48 208 -116c47 65 106 116 192 116c148 0 223 -106 223 -227c0 -119 -75 -223 -210 -223c-85 0 -155 37 -212 111c-46 -72 -106 -111 -197 -111zM279 155c49 0 95 43 117 100c-25 48 -66 99 -119 99
s-87 -39 -87 -97c0 -61 36 -102 89 -102zM649 155c49 0 83 42 83 102c0 58 -34 97 -87 97c-51 0 -90 -48 -119 -99c27 -54 68 -100 123 -100z" />
    <glyph glyph-name="integral" unicode="&#x222b;" horiz-adv-x="478" 
d="M95 -215c-85 0 -131 34 -131 93c0 49 30 79 94 79c11 -72 26 -86 41 -86c20 0 49 17 49 160v431c0 239 99 289 208 289c85 0 132 -35 132 -94c0 -49 -31 -79 -95 -78c-11 71 -26 85 -41 85c-20 0 -49 -17 -49 -160v-432c0 -238 -99 -287 -208 -287z" />
    <glyph glyph-name="uni2126" unicode="&#x2126;" horiz-adv-x="735" 
d="M554 172v-40h134v-132h-290v194c84 34 122 105 122 186c0 103 -52 177 -153 177c-103 0 -152 -73 -152 -177c0 -81 38 -152 122 -186v-194h-290v132h134v37c-92 47 -141 131 -141 234c0 187 130 300 327 300c199 0 328 -114 328 -291c0 -108 -52 -194 -141 -240z" />
    <glyph glyph-name="uni2206" unicode="&#x2206;" horiz-adv-x="711" 
d="M252 690h206l244 -690h-693zM353 560l-124 -415h249z" />
    <glyph glyph-name="product" unicode="&#x220f;" horiz-adv-x="793" 
d="M250 -199h-175v889h643v-889h-175v739h-293v-739z" />
    <glyph glyph-name="summation" unicode="&#x2211;" horiz-adv-x="646" 
d="M456 255l-215 -307h361v-147h-566v114l231 331l-223 330v114h550v-145h-334z" />
    <glyph glyph-name="radical" unicode="&#x221a;" horiz-adv-x="614" 
d="M313 171l171 664h140l-226 -835h-169l-79 242l-80 -5l-28 121l69 4l-1 4h156z" />
    <glyph glyph-name="partialdiff" unicode="&#x2202;" horiz-adv-x="583" 
d="M127 576l49 127c257 -55 377 -216 377 -431c0 -159 -88 -285 -266 -285c-160 0 -254 91 -254 216c0 130 84 214 202 214c70 0 121 -26 156 -62c-35 112 -127 183 -264 221zM284 112c71 0 106 57 107 152c-20 33 -58 54 -98 54c-56 0 -97 -45 -97 -106
c0 -57 36 -100 88 -100z" />
    <glyph glyph-name="uni00B5" unicode="&#xb5;" horiz-adv-x="629" 
d="M393 190v321h171v-511h-144l-16 75c-33 -58 -78 -89 -135 -89c-12 0 -23 1 -34 2v-187l-170 -14v724h170v-275c0 -70 21 -106 72 -106c31 0 66 22 86 60z" />
    <glyph glyph-name="percent" unicode="%" horiz-adv-x="846" 
d="M193 248c-100 0 -167 57 -167 149s67 154 167 154c102 0 169 -62 169 -154s-67 -149 -169 -149zM305 0h-124l363 539h126zM193 332c36 0 60 26 60 65c0 42 -23 71 -60 71c-35 0 -58 -29 -58 -71c0 -39 24 -65 58 -65zM652 -13c-100 0 -167 57 -167 149s67 154 167 154
c102 0 168 -62 168 -154s-66 -149 -168 -149zM652 71c36 0 59 26 59 65c0 42 -23 71 -59 71s-59 -29 -59 -71c0 -39 24 -65 59 -65z" />
    <glyph glyph-name="perthousand" unicode="&#x2030;" horiz-adv-x="1223" 
d="M193 248c-100 0 -167 57 -167 149s67 154 167 154c102 0 169 -62 169 -154s-67 -149 -169 -149zM305 0h-124l363 539h126zM193 332c36 0 60 26 60 65c0 42 -23 71 -60 71c-35 0 -58 -29 -58 -71c0 -39 24 -65 58 -65zM652 -13c-100 0 -167 57 -167 149s67 154 167 154
c102 0 168 -62 168 -154s-66 -149 -168 -149zM1028 -13c-100 0 -167 57 -167 149s67 154 167 154c102 0 169 -62 169 -154s-67 -149 -169 -149zM652 71c36 0 59 26 59 65c0 42 -23 71 -59 71s-59 -29 -59 -71c0 -39 24 -65 59 -65zM1028 71c36 0 60 26 60 65
c0 42 -23 71 -60 71c-35 0 -58 -29 -58 -71c0 -39 24 -65 58 -65z" />
    <glyph glyph-name="uni2215.lf" horiz-adv-x="353" 
d="M120 -50h-118l236 790h118z" />
    <glyph glyph-name="plus.lf" horiz-adv-x="555" 
d="M350 361h163v-130h-163v-175h-145v175h-163v130h163v175h145v-175z" />
    <glyph glyph-name="minus.lf" horiz-adv-x="520" 
d="M478 231h-436v130h436v-130z" />
    <glyph glyph-name="multiply.lf" horiz-adv-x="549" 
d="M416 534l91 -88l-145 -150l145 -150l-91 -88l-141 147l-142 -147l-91 88l145 150l-145 150l91 88l142 -147z" />
    <glyph glyph-name="divide.lf" horiz-adv-x="540" 
d="M271 407c-46 0 -82 31 -82 77c0 44 32 77 82 77c46 0 80 -30 80 -77c0 -44 -32 -77 -80 -77zM497 235h-455v122h455v-122zM271 30c-46 0 -82 32 -82 77s32 78 82 78c46 0 80 -30 80 -78c0 -44 -32 -77 -80 -77z" />
    <glyph glyph-name="equal.lf" horiz-adv-x="521" 
d="M479 345h-437v129h437v-129zM479 118h-437v129h437v-129z" />
    <glyph glyph-name="notequal.lf" horiz-adv-x="521" 
d="M479 474v-129h-151l-25 -98h176v-129h-210l-26 -101h-112l26 101h-115v129h149l26 98h-175v129h208l26 98h111l-25 -98h117z" />
    <glyph glyph-name="greater.lf" horiz-adv-x="509" 
d="M42 396v137l425 -177v-120l-425 -178v136l268 101z" />
    <glyph glyph-name="less.lf" horiz-adv-x="509" 
d="M42 355l425 178v-136l-268 -101l268 -101v-138l-425 178v120z" />
    <glyph glyph-name="approxequal.lf" horiz-adv-x="537" 
d="M368 324c-83 0 -143 47 -203 47c-32 0 -47 -13 -54 -31l-69 15c3 88 56 142 128 142c80 0 134 -47 205 -47c29 0 44 13 51 29l68 -14c-5 -94 -56 -141 -126 -141zM368 96c-83 0 -143 47 -203 47c-32 0 -47 -14 -54 -31l-69 15c3 88 56 141 128 141c80 0 134 -47 205 -47
c29 0 44 14 51 30l68 -15c-5 -93 -56 -140 -126 -140z" />
    <glyph glyph-name="logicalnot.lf" horiz-adv-x="508" 
d="M460 138h-146v166h-272v130h418v-296z" />
    <glyph glyph-name="infinity.lf" horiz-adv-x="922" 
d="M261 72c-143 0 -219 105 -219 223c0 117 71 227 215 227c102 0 160 -48 208 -116c47 65 106 116 192 116c148 0 223 -106 223 -227c0 -119 -75 -223 -210 -223c-85 0 -155 37 -212 111c-46 -72 -106 -111 -197 -111zM279 195c49 0 95 43 117 100c-25 48 -66 99 -119 99
s-87 -39 -87 -97c0 -61 36 -102 89 -102zM649 195c49 0 83 42 83 102c0 58 -34 97 -87 97c-51 0 -90 -48 -119 -99c27 -54 68 -100 123 -100z" />
    <glyph glyph-name="emptyset.lf" horiz-adv-x="642" 
d="M591 586l-69 -95c49 -47 78 -114 78 -194c0 -152 -111 -269 -279 -269c-45 0 -86 8 -122 24l-73 -99l-75 52l71 96c-51 48 -80 116 -80 194c0 157 113 269 278 269c46 0 88 -8 125 -24l69 94zM319 443c-80 0 -136 -59 -136 -146c0 -37 10 -69 29 -94l167 227
c-18 9 -38 13 -60 13zM323 149c81 0 136 60 136 146c0 36 -10 67 -27 91l-166 -226c17 -7 36 -11 57 -11z" />
    <glyph glyph-name="percent.lf" horiz-adv-x="936" 
d="M214 312c-119 0 -188 78 -188 194c0 119 71 199 193 199c119 0 189 -79 189 -196c0 -119 -72 -197 -194 -197zM329 0h-123l403 691h123zM219 409c45 0 65 37 65 97c0 64 -23 102 -70 102c-44 0 -64 -39 -64 -99c0 -62 21 -100 69 -100zM716 -15c-119 0 -188 79 -188 195
c0 119 71 198 193 198c119 0 189 -78 189 -195c0 -119 -72 -198 -194 -198zM720 82c46 0 66 38 66 98c0 63 -23 101 -70 101c-44 0 -64 -38 -64 -98c0 -62 21 -101 68 -101z" />
    <glyph glyph-name="perthousand.lf" horiz-adv-x="1357" 
d="M214 312c-119 0 -188 78 -188 194c0 119 71 199 193 199c119 0 189 -79 189 -196c0 -119 -72 -197 -194 -197zM329 0h-123l403 691h123zM219 409c45 0 65 37 65 97c0 64 -23 102 -70 102c-44 0 -64 -39 -64 -99c0 -62 21 -100 69 -100zM716 -15c-119 0 -188 79 -188 195
c0 119 71 198 193 198c119 0 189 -78 189 -195c0 -119 -72 -198 -194 -198zM1138 -15c-119 0 -189 79 -189 195c0 119 71 198 193 198c119 0 189 -78 189 -195c0 -119 -72 -198 -193 -198zM720 82c46 0 66 38 66 98c0 63 -23 101 -70 101c-44 0 -64 -38 -64 -98
c0 -62 21 -101 68 -101zM1142 82c45 0 65 38 65 98c0 63 -23 101 -70 101c-44 0 -64 -38 -64 -98c0 -62 22 -101 69 -101z" />
    <glyph glyph-name="lozenge" unicode="&#x25ca;" horiz-adv-x="574" 
d="M209 539h153l178 -270l-178 -269h-153l-175 269zM189 269l99 -166l95 165l-98 164z" />
    <glyph glyph-name="at" unicode="@" horiz-adv-x="966" 
d="M614 446h107l-52 -241c-14 -70 5 -92 47 -92c81 0 129 101 129 198c0 178 -123 306 -340 306c-236 0 -384 -161 -384 -384c0 -204 149 -357 390 -357c90 0 150 17 203 42l17 -78c-55 -26 -133 -41 -223 -41c-293 0 -473 182 -473 429c0 271 184 464 476 464
c262 0 420 -164 420 -378c0 -155 -91 -290 -237 -290c-69 0 -112 28 -126 83c-33 -59 -78 -85 -142 -85c-126 0 -190 107 -169 241c18 117 92 193 191 193c65 0 115 -25 145 -65zM531 178l21 103c-3 27 -27 67 -74 67c-48 0 -76 -44 -85 -107c-9 -64 11 -114 63 -114
c34 0 61 23 75 51z" />
    <glyph glyph-name="ampersand" unicode="&#x26;" horiz-adv-x="658" 
d="M490 309l154 -11c-3 -229 -134 -296 -264 -309v-151h-101v150c-158 11 -235 80 -235 188c0 100 69 152 167 171c-87 25 -140 74 -140 155c0 95 71 166 218 174v154h101v-158c61 -7 122 -23 163 -46l-25 -137c-59 34 -138 55 -194 55s-95 -23 -95 -68
c0 -42 34 -70 122 -70h57v-119h-65c-84 0 -136 -24 -136 -85c0 -55 50 -82 120 -82c90 0 150 40 153 189z" />
    <glyph glyph-name="paragraph" unicode="&#xb6;" horiz-adv-x="687" 
d="M244 689v1h368v-690h-152v552h-80v-552h-152v291c-126 12 -202 83 -202 199c0 118 82 192 218 199z" />
    <glyph glyph-name="section" unicode="&#xa7;" horiz-adv-x="551" 
d="M513 379c0 -60 -26 -109 -76 -138c20 -21 31 -47 31 -78c0 -116 -78 -177 -224 -177c-65 0 -150 11 -203 40l18 126c59 -33 142 -55 188 -55c40 0 58 19 58 47c0 29 -31 50 -104 70c-130 36 -159 84 -159 148s31 108 80 135c-24 23 -35 52 -35 89c0 119 103 163 217 163
c78 0 151 -15 203 -42l-20 -125c-56 35 -128 57 -179 57c-39 0 -58 -20 -58 -45c0 -27 19 -44 114 -70c112 -30 149 -70 149 -145zM176 388c0 -39 29 -54 139 -84c12 -3 23 -7 33 -10c19 11 31 30 31 56c0 45 -52 64 -129 84c-13 4 -25 7 -36 11c-23 -10 -38 -30 -38 -57z
" />
    <glyph glyph-name="copyright" unicode="&#xa9;" horiz-adv-x="791" 
d="M395 -15c-214 0 -355 142 -355 359s141 359 355 359c215 0 356 -142 356 -359s-141 -359 -356 -359zM395 40c180 0 297 121 297 304s-117 305 -297 305s-297 -122 -297 -305s117 -304 297 -304zM419 140c-145 0 -219 78 -219 201c0 130 73 209 215 209
c27 0 94 -6 134 -26l-24 -129c-21 16 -54 29 -88 29c-47 0 -75 -28 -75 -79c0 -50 33 -82 80 -82c35 0 65 17 82 35l25 -129c-37 -25 -92 -29 -130 -29z" />
    <glyph glyph-name="registered" unicode="&#xae;" horiz-adv-x="573" 
d="M286 781c157 0 261 -103 261 -260c0 -152 -104 -251 -261 -251c-156 0 -260 99 -260 251c0 157 104 260 260 260zM286 310c132 0 218 83 218 211c0 133 -86 219 -218 219c-131 0 -217 -86 -217 -219c0 -128 86 -211 217 -211zM345 513c18 -4 29 -16 43 -42l46 -83h-97
l-44 86c-5 10 -10 17 -24 17h-12v-103h-87v287h130c68 0 113 -26 113 -83c0 -43 -24 -69 -68 -79zM280 609h-23v-73h24c28 0 42 15 42 36c0 25 -15 37 -43 37z" />
    <glyph glyph-name="trademark" unicode="&#x2122;" horiz-adv-x="936" 
d="M131 578h-103v112h330v-112h-104v-269h-123v269zM850 690l30 -381h-113l-10 254l-83 -254h-78l-86 254l-8 -254h-118l29 381h149l74 -219l70 219h144z" />
    <glyph glyph-name="degree" unicode="&#xb0;" horiz-adv-x="467" 
d="M223 347c-118 0 -197 67 -197 174c0 108 79 182 197 182c120 0 197 -74 197 -182c0 -107 -77 -174 -197 -174zM223 443c43 0 71 31 71 78c0 52 -27 86 -71 86c-43 0 -70 -34 -70 -86c0 -47 28 -78 70 -78z" />
    <glyph glyph-name="minute" unicode="&#x2032;" horiz-adv-x="267" 
d="M230 631l-102 -276l-79 11l13 335l171 -11z" />
    <glyph glyph-name="second" unicode="&#x2033;" horiz-adv-x="499" 
d="M230 631l-102 -276l-79 11l13 335l171 -11zM462 631l-102 -276l-79 11l13 335l171 -11z" />
    <glyph glyph-name="bar" unicode="|" horiz-adv-x="302" 
d="M227 -199l-152 -12v1100h152v-1088z" />
    <glyph glyph-name="brokenbar" unicode="&#xa6;" horiz-adv-x="302" 
d="M227 438h-152v451h152v-451zM227 -199l-152 -12v449h152v-437z" />
    <glyph glyph-name="dagger" unicode="&#x2020;" horiz-adv-x="576" 
d="M357 516l183 20v-153l-182 20l23 -173l-41 -230h-104l-41 230l23 173l-182 -20v153l183 -20l-20 174h178z" />
    <glyph glyph-name="uni2113" unicode="&#x2113;" horiz-adv-x="567" 
d="M339 119c35 0 61 30 65 88l102 -11c-1 -133 -64 -210 -187 -210c-127 0 -200 74 -208 229c-30 1 -59 4 -81 8v107c25 -5 53 -8 80 -10v96c0 263 97 334 213 334c129 0 190 -85 190 -211c0 -163 -86 -280 -240 -315c6 -78 28 -105 66 -105zM337 617
c-41 0 -65 -47 -65 -158v-121c76 28 117 87 117 189c0 53 -14 90 -52 90z" />
    <glyph glyph-name="daggerdbl" unicode="&#x2021;" horiz-adv-x="576" 
d="M358 533l182 19v-153l-181 20l12 -78l-13 -76l159 17v-145l-160 18l16 -155h-170l16 155l-160 -18v145l159 -17l-12 76l12 78l-182 -20v153l182 -19l-19 157h178z" />
    <glyph glyph-name="uni2116" unicode="&#x2116;" horiz-adv-x="1207" 
d="M233 690l278 -414v414h164v-690h-159l-277 413v-413h-164v690h158zM951 159c-130 0 -202 76 -202 202c0 123 76 204 208 204c131 0 202 -79 202 -202c0 -124 -75 -204 -208 -204zM951 461c-44 0 -69 -37 -69 -98s28 -100 74 -100s69 38 69 98c0 59 -27 100 -74 100z
M1131 0h-355v101h355v-101z" />
    <glyph glyph-name="estimated" unicode="&#x212e;" horiz-adv-x="784" 
d="M744 347v-10h-502v-294c45 -21 98 -33 159 -33c144 0 245 62 293 181l21 -9c-53 -129 -165 -195 -314 -195c-224 0 -361 162 -361 360c0 197 145 356 355 356c211 0 349 -159 349 -356zM542 359v291c-43 20 -92 31 -147 31c-57 0 -108 -12 -153 -34v-288h300z" />
    <glyph glyph-name="at.case" horiz-adv-x="975" 
d="M619 536h107l-52 -241c-15 -70 4 -92 47 -92c80 0 128 101 128 198c0 178 -122 306 -339 306c-236 0 -384 -161 -384 -384c0 -204 148 -357 390 -357c89 0 149 17 203 42l16 -78c-55 -26 -133 -41 -222 -41c-294 0 -473 182 -473 429c0 271 184 464 476 464
c262 0 419 -164 419 -378c0 -155 -90 -290 -237 -290c-68 0 -111 28 -125 83c-34 -59 -79 -85 -142 -85c-127 0 -191 107 -170 241c18 117 93 193 191 193c65 0 116 -25 145 -64zM535 268l21 103c-3 27 -27 67 -74 67s-76 -44 -85 -107c-9 -64 12 -114 64 -114
c33 0 61 23 74 51z" />
    <glyph glyph-name="uni02C9" unicode="&#x2c9;" horiz-adv-x="749" 
d="M545 606h-340v116h340v-116z" />
    <glyph glyph-name="uni0308" unicode="&#x308;" 
d="M-543 582c-53 0 -91 35 -91 87c0 49 35 87 91 87c51 0 89 -36 89 -87c0 -49 -36 -87 -89 -87zM-312 582c-52 0 -90 35 -90 87c0 49 35 87 90 87c51 0 89 -36 89 -87c0 -49 -35 -87 -89 -87z" />
    <glyph glyph-name="uni0307" unicode="&#x307;" 
d="M-297 574c-58 0 -100 38 -100 95c0 54 39 95 100 95c56 0 98 -39 98 -95c0 -54 -40 -95 -98 -95z" />
    <glyph glyph-name="gravecomb" unicode="&#x300;" 
d="M-252 572h-113l-126 182h168z" />
    <glyph glyph-name="acutecomb" unicode="&#x301;" 
d="M-324 572h-113l70 182h169z" />
    <glyph glyph-name="uni030B" unicode="&#x30b;" 
d="M-562 572h-110l63 182h163zM-343 572h-111l73 182h165z" />
    <glyph glyph-name="uni030C.alt" 
d="M-141 557h-112l6 220l154 11z" />
    <glyph glyph-name="uni0302" unicode="&#x302;" 
d="M-407 572h-113l107 182h166l106 -182h-113l-76 90z" />
    <glyph glyph-name="uni030C" unicode="&#x30c;" 
d="M-247 572h-166l-107 182h113l77 -91l76 91h113z" />
    <glyph glyph-name="uni0306" unicode="&#x306;" 
d="M-331 572c-124 0 -181 75 -181 182h114c1 -34 19 -74 69 -74c51 0 64 38 66 74h114c0 -107 -56 -182 -182 -182z" />
    <glyph glyph-name="uni030A" unicode="&#x30a;" 
d="M-342 566c-77 0 -132 47 -132 117c0 76 56 123 136 123c76 0 132 -48 132 -120c0 -73 -57 -120 -136 -120zM-338 634c29 0 50 20 50 49c0 34 -21 56 -54 56c-30 0 -50 -22 -50 -53c0 -32 20 -52 54 -52z" />
    <glyph glyph-name="tildecomb" unicode="&#x303;" 
d="M-298 581c-80 0 -106 49 -145 49c-20 0 -32 -21 -33 -43l-80 6c-6 101 51 151 110 151c78 0 105 -46 141 -46c26 0 35 23 37 45l78 -6c5 -104 -52 -156 -108 -156z" />
    <glyph glyph-name="uni0304" unicode="&#x304;" 
d="M-204 606h-340v116h340v-116z" />
    <glyph glyph-name="uni0312" unicode="&#x312;" 
d="M-344 564c-48 0 -91 27 -91 81c0 68 61 123 141 144l34 -35c-42 -19 -61 -40 -61 -64c0 -27 24 -41 73 -42c0 -46 -35 -84 -96 -84z" />
    <glyph glyph-name="uni0326" unicode="&#x326;" 
d="M-403 -263l-34 35c42 18 61 40 61 64c0 27 -24 41 -72 41c0 46 35 85 95 85c49 0 91 -27 91 -81c0 -68 -60 -123 -141 -144z" />
    <glyph glyph-name="uni0327" unicode="&#x327;" 
d="M-243 0l-26 -39c59 -14 95 -41 95 -90c0 -64 -56 -97 -130 -97c-47 0 -90 8 -118 23l15 88c32 -17 67 -27 92 -27c16 0 33 8 33 25s-8 36 -69 47l-8 19l32 51h84z" />
    <glyph glyph-name="uni0328" unicode="&#x328;" 
d="M-348 -226c-60 0 -113 29 -113 85c0 62 52 113 142 162l75 -21c-65 -41 -95 -74 -95 -109c0 -21 13 -30 30 -30c14 0 32 6 49 23l17 -78c-19 -17 -52 -32 -105 -32z" />
    <glyph glyph-name="dieresis" unicode="&#xa8;" horiz-adv-x="625" 
d="M198 582c-53 0 -91 35 -91 87c0 49 35 87 91 87c51 0 89 -36 89 -87c0 -49 -36 -87 -89 -87zM429 582c-52 0 -90 35 -90 87c0 49 35 87 90 87c51 0 89 -36 89 -87c0 -49 -35 -87 -89 -87z" />
    <glyph glyph-name="dotaccent" unicode="&#x2d9;" horiz-adv-x="625" 
d="M313 574c-58 0 -100 38 -100 95c0 54 39 95 100 95c56 0 98 -39 98 -95c0 -54 -40 -95 -98 -95z" />
    <glyph glyph-name="grave" unicode="`" horiz-adv-x="625" 
d="M381 572h-113l-126 182h168z" />
    <glyph glyph-name="acute" unicode="&#xb4;" horiz-adv-x="625" 
d="M356 572h-113l70 182h169z" />
    <glyph glyph-name="hungarumlaut" unicode="&#x2dd;" horiz-adv-x="625" 
d="M259 572h-110l63 182h163zM478 572h-111l73 182h165z" />
    <glyph glyph-name="circumflex" unicode="&#x2c6;" horiz-adv-x="625" 
d="M236 572h-113l107 182h166l106 -182h-113l-76 90z" />
    <glyph glyph-name="caron" unicode="&#x2c7;" horiz-adv-x="625" 
d="M396 572h-166l-107 182h113l77 -91l76 91h113z" />
    <glyph glyph-name="breve" unicode="&#x2d8;" horiz-adv-x="625" 
d="M312 572c-124 0 -181 75 -181 182h114c1 -34 19 -74 69 -74c51 0 64 38 66 74h114c0 -107 -56 -182 -182 -182z" />
    <glyph glyph-name="ring" unicode="&#x2da;" horiz-adv-x="625" 
d="M310 566c-77 0 -132 47 -132 117c0 76 56 123 136 123c76 0 132 -48 132 -120c0 -73 -57 -120 -136 -120zM314 634c29 0 50 20 50 49c0 34 -21 56 -54 56c-30 0 -50 -22 -50 -53c0 -32 20 -52 54 -52z" />
    <glyph glyph-name="tilde" unicode="&#x2dc;" horiz-adv-x="625" 
d="M386 581c-80 0 -106 49 -145 49c-20 0 -32 -21 -33 -43l-80 6c-6 101 51 151 110 151c78 0 105 -46 141 -46c26 0 35 23 37 45l78 -6c5 -104 -52 -156 -108 -156z" />
    <glyph glyph-name="macron" unicode="&#xaf;" horiz-adv-x="625" 
d="M482 606h-340v116h340v-116z" />
    <glyph glyph-name="cedilla" unicode="&#xb8;" horiz-adv-x="625" 
d="M348 0l-26 -39c59 -14 95 -41 95 -90c0 -64 -56 -97 -130 -97c-47 0 -90 8 -118 23l15 88c32 -17 67 -27 92 -27c16 0 33 8 33 25s-8 36 -69 47l-8 19l32 51h84z" />
    <glyph glyph-name="ogonek" unicode="&#x2db;" horiz-adv-x="625" 
d="M293 -226c-60 0 -113 29 -113 85c0 62 52 113 142 162l75 -21c-65 -41 -95 -74 -95 -109c0 -21 13 -30 30 -30c14 0 32 6 49 23l17 -78c-19 -17 -52 -32 -105 -32z" />
    <glyph glyph-name="uni0308.case" 
d="M-564 747c-54 0 -92 34 -92 85c0 47 35 84 92 84c51 0 89 -34 89 -84c0 -48 -36 -85 -89 -85zM-311 747c-53 0 -91 34 -91 85c0 47 35 84 91 84c53 0 90 -34 90 -84c0 -48 -35 -85 -90 -85z" />
    <glyph glyph-name="uni0307.case" 
d="M-298 747c-58 0 -100 36 -100 91c0 52 39 91 100 91c56 0 98 -37 98 -91c0 -52 -39 -91 -98 -91z" />
    <glyph glyph-name="gravecomb.case" 
d="M-277 746h-113l-134 169h176z" />
    <glyph glyph-name="acutecomb.case" 
d="M-361 746h-112l70 169h177z" />
    <glyph glyph-name="uni030B.case" 
d="M-573 746h-108l65 169h175zM-348 746h-107l75 169h173z" />
    <glyph glyph-name="uni0302.case" 
d="M-489 746h-113l105 169h169l104 -169h-112l-76 80z" />
    <glyph glyph-name="uni030C.case" 
d="M-324 746h-170l-105 169h113l77 -80l76 80h113z" />
    <glyph glyph-name="uni0306.case" 
d="M-332 738c-125 0 -187 76 -187 176h114c1 -39 22 -70 75 -70c54 0 71 30 73 70h113c0 -100 -60 -176 -188 -176z" />
    <glyph glyph-name="uni030A.case" 
d="M-341 718c-82 0 -141 49 -141 121c0 78 60 127 145 127c81 0 140 -50 140 -124c0 -76 -60 -124 -144 -124zM-337 789c31 0 54 20 54 50c0 35 -23 56 -58 56c-32 0 -55 -21 -55 -53c0 -33 23 -53 59 -53z" />
    <glyph glyph-name="tildecomb.case" 
d="M-297 750c-83 0 -115 48 -156 48c-22 0 -35 -21 -36 -42l-81 6c-5 101 52 148 114 148c80 0 113 -47 152 -47c27 0 37 25 39 45l79 -6c4 -100 -53 -152 -111 -152z" />
    <glyph glyph-name="uni0304.case" 
d="M-156 775h-350v116h350v-116z" />
    <glyph glyph-name="uni0308.narrow" 
d="M-492 582c-53 0 -87 35 -87 87c0 49 31 87 87 87c51 0 85 -36 85 -87c0 -49 -32 -87 -85 -87zM-282 582c-53 0 -87 35 -87 87c0 49 31 87 87 87c52 0 85 -36 85 -87c0 -49 -31 -87 -85 -87z" />
    <glyph glyph-name="gravecomb.narrow" 
d="M-196 572h-106l-110 182h169z" />
    <glyph glyph-name="acutecomb.narrow" 
d="M-306 572h-106l55 182h169z" />
    <glyph glyph-name="uni0302.narrow" 
d="M-334 572h-109l79 182h166l78 -182h-108l-53 98z" />
    <glyph glyph-name="uni030C.narrow" 
d="M-198 572h-166l-79 182h109l53 -98l53 98h108z" />
    <glyph glyph-name="uni0304.narrow" 
d="M-200 606h-299v116h299v-116z" />
    </font>
</defs>
</svg>
